<svg width="1440" height="703" viewBox="0 0 1440 703" fill="none" xmlns="http://www.w3.org/2000/svg"><path fill-rule="evenodd" clip-rule="evenodd" d="M1456.76 0h2.31v5.384h-2.31V0zm-418.42 43.072h2.31v40.765h-2.31V43.072zm-71.528 112.296h-2.307v28.458h2.307v-28.458zm-26.92 35.38h2.307v11.537h6.153v66.916h-6.153v16.921h-2.307v-16.921h-6.154v-66.916h6.154v-11.537zM693.765 206.9h2.307v40.765h-2.307V206.9zm-22.305 7.692h-2.307v57.686h-6.154v52.302h6.154v40.765h2.307V324.58h6.153v-52.302h-6.153v-57.686zm-248.434 24.613h2.307v37.688h6.153v109.988h-14.614V276.893h6.154v-37.688zM154.594 270.74h-2.308v116.141h-6.153v86.913h6.153V576.86h2.308V473.794h6.153v-86.913h-6.153V270.74zm-73.84 28.458h-2.307v81.53h-6.153v133.831h6.153v90.76h2.308v-90.76h6.153V380.728h-6.153v-81.53zM53.836 378.42h2.308v40.765h-2.308V378.42zM4.61 434.568h2.307v86.913h6.153v64.609H6.917v40.765H4.61V586.09h-6.154v-64.609H4.61v-86.913zm-16.152 107.68h-14.614v86.914h6.153v40.765h2.308v-40.765h6.152v-86.914zM-50 575.322h14.614v86.913h-6.153V703h-2.307v-40.765H-50v-86.913zm81.53-119.987h-2.307v16.921h-6.154v57.686h6.154v40.765h2.307v-40.765h6.153v-57.686H31.53v-16.921zm30.765-36.15v70.762h-6.152v40.764h-2.308v-40.764h-6.153v-70.762h14.613zm40.766 6.153h2.307v40.765h-2.307v-40.765zm8.46 40.765v39.227l-6.153-.001v40.765h-2.307v-40.765l-6.154.001v-39.227h14.614zm18.459 27.689h-2.307v3.846h-6.153v25.382h14.613v-25.382h-6.153v-3.846zm46.919-109.988h2.307v24.613h-2.307v-24.613zm8.46 24.613v31.535h-6.153v24.613h-2.307v-24.613h-6.154v-31.535h14.614zm9.999-105.373h14.614v110.757h-6.153v40.765h-2.307v-40.765h-6.154V303.044zm33.074 36.919h-2.308v71.531h2.308v-71.531zm6.153 104.604v-33.073h-14.614v33.073h6.153v40.765h2.308v-40.765h6.153zm24.613-83.068h-14.614v86.914h6.153v40.764h2.308v-40.764h6.153v-86.914zm16.151-34.612h2.307v73.069h6.153v19.229h-14.614v-19.229h6.154v-73.069zm0 114.603v-22.305h2.307v22.305h-2.307zm26.921-132.293h-2.308v88.452h-6.153v83.068h6.153v83.068h2.308v-83.068h6.152v-83.068h-6.152v-88.452zm22.304 109.219h2.308v40.765h-2.308v-40.765zm8.461 40.765v124.601h-6.153v40.765h-2.308v-40.765h-6.153V459.181h14.614zm18.46-131.525h-2.307v89.991h2.307v-89.991zm-8.461 234.59h6.154v40.765h2.307v-40.765h6.153V417.647h-14.614v144.599zM373.8 378.42h2.307v24.613h6.153v79.222h-14.614v-79.222h6.154V378.42zm0 144.6v-40.765h2.307v40.765H373.8zm26.921-216.13h-2.308v44.61h2.308v-44.61zm6.153 109.988V351.5H392.26v65.378h6.153v40.764h2.308v-40.764h6.153zm16.152 39.995v-69.992h2.307v69.992h-2.307zm26.92-180.749h-2.307v20.767l-6.154-.001v23.075h14.614V296.89l-6.153.001v-20.767zm-2.307 43.841v6.922h2.307v-6.922h-2.307zm33.072 6.922h-14.613v59.994h6.153v11.537h2.308v-11.537h6.152v-59.994zm16.152-12.306h2.308v27.689h6.153v21.536h-6.153V423.8h-2.308v-59.994h-6.153V342.27h6.153v-27.689zm26.92 27.69h-2.307v6.153h-6.154v33.073h14.614v-33.073h-6.153v-6.153zm-2.307 39.226v6.153h2.307v-6.153h-2.307zm24.613-9.23h2.307v23.844h6.153v24.612h-14.613v-24.612h6.153v-23.844zm0 56.148v-7.692h2.307v7.692h-2.307zm26.92-70.762h-2.308v18.46h-6.153v116.141h14.614V376.113h-6.153v-18.46zm-2.308 134.601v35.381h2.308v-35.381h-2.308zm24.614-167.674h2.307v10.768h6.153v86.913h-6.153v40.765h-2.307v-40.765h-6.154v-86.913h6.154V324.58zm26.919-69.223h-2.307v6.922h-6.154v53.84h14.614v-53.84h-6.153v-6.922zm-2.307 60.762v40.765h2.307v-40.765h-2.307zm24.613-74.607h2.308v13.845h-2.308v-13.845zm8.46 13.845v49.225h-6.152v15.383h-2.308v-15.383h-6.153v-49.225H653zm49.225-7.692v71.531h-6.153v40.765h-2.307v-40.765h-6.154v-71.531h14.614zm18.46 30.766h-2.308v9.23h-6.153v16.152h6.153v74.607h2.308v-74.607h6.152v-16.152h-6.152v-9.23zm22.305-6.153h2.308v52.302h6.153v48.456h-14.614V324.58h6.153v-52.302zm0 162.29v-61.532h2.308v61.532h-2.308zm26.921-208.439h-2.307v138.447h2.307V226.129zm6.153 169.213v-30.766H761.45v30.766h6.154v40.764h2.307v-40.764h6.153zm16.152-165.367h2.307v100.758h-2.307V229.975zm8.46 100.758v55.379h-6.153v40.764h-2.307v-40.764h-6.154v-55.379h14.614zm10-74.607h14.614v31.535h-6.153v40.764h-2.308v-40.764h-6.153v-31.535zm33.073 14.614h-2.307v40.765h2.307V270.74zm6.153 80.76v-39.995h-14.614V351.5h6.154v40.765h2.307V351.5h6.153zm16.152-96.912h2.307v89.221h6.153v48.456H859.9v-48.456h6.154v-89.221zm0 178.442v-40.765h2.307v40.765h-2.307zm18.46-166.136h14.613v86.914h-6.152v40.764h-2.308v-40.764h-6.153v-86.914zm33.073-59.994h-2.308v40.765h2.308V206.9zm6.153 69.224v-28.459h-14.614v28.459h6.153v16.152h2.308v-16.152h6.153zm49.225-73.069v-19.229h-14.613v19.229h6.153v40.764h2.307v-40.764h6.153zm16.152-23.075h2.308v10.768h6.153v27.69h-6.153v8.46h-2.308v-8.46h-6.153v-27.69h6.153V179.98zm26.923-9.23h-2.31v40.765h2.31V170.75zm6.15 68.455v-27.69h-14.61v27.69h6.15v22.305h2.31v-22.305h6.15zm24.61-155.368V225.36h-6.15v40.765h-2.31V225.36h-6.15V83.837h14.61zm18.46-4.615h-2.3v89.221h-6.16v26.92h14.62v-26.92h-6.16v-89.22zm-2.3 116.141v40.765h2.3v-40.765h-2.3zm24.61 19.229h2.31v19.998h6.15v16.152h-6.15v72.3h-2.31v-72.3h-6.16V234.59h6.16v-19.998zm26.92-13.845h-2.31v26.92h2.31v-26.92zm6.15 94.605v-67.685h-14.61v67.685h6.15v19.229h2.31v-19.229h6.15zm16.15-179.211h2.31v103.835h6.15v58.455h-14.61v-58.455h6.15V116.141zm0 261.51v-99.22h2.31v99.22h-2.31zm26.92-155.368h-2.3v34.612h-6.16v46.918h6.16v111.526h2.3V303.813h6.16v-46.918h-6.16v-34.612zm22.31-21.536h2.31v9.23h6.15v118.449h-6.15v40.764h-2.31v-40.764h-6.15V209.977h6.15v-9.23zm26.92 1.539h-2.31v26.151h-6.15v55.378h14.61v-55.378h-6.15v-26.151zm-2.31 81.529v6.923h2.31v-6.923h-2.31zm24.61-66.916h2.31v17.691h-2.31v-17.691zm8.46 17.691v66.146h-6.15v13.845h-2.31v-13.845h-6.15V234.59h14.61zm18.47-13.845h-2.31v11.537h-6.16v14.614h6.16v12.306h2.31v-12.306h6.15v-14.614h-6.15v-11.537zm22.3-77.684h2.31v19.998h6.15v68.454h-14.61v-68.454h6.15v-19.998zm0 116.911v-28.459h2.31v28.459h-2.31zm26.92-101.528h-2.31v51.533h-6.15v56.917h14.61v-56.917h-6.15v-51.533zm-2.31 108.45v8.461h2.31v-8.461h-2.31zm33.07-70.762h-14.61v110.757h6.15v40.765h2.31v-40.765h6.15V196.132zm16.16 11.538h2.31v40.764h-2.31V207.67zm8.46 40.765v9.229h-14.62v-9.229h14.62zm16.15-129.217h2.31v59.224h-2.31v-59.224zm8.46 59.224v43.842l-6.15-.001v40.765h-2.31v-40.765l-6.15.001v-43.842h14.61zm18.46-91.528h-2.31v34.611h-6.15v39.227h14.61v-39.227h-6.15V86.914zm-2.31 73.838v25.382h2.31v-25.382h-2.31zm24.62-73.838h2.3v6.153h6.16v29.227h-14.62V93.067h6.16v-6.153zm33.07-81.53v181.519h-6.15v40.764h-2.31v-40.764h-6.15V5.384h14.61zm10 63.07h14.61v42.303h-6.15v40.765h-2.31v-40.765h-6.15V68.454z" fill="url(#paint0_linear_1314_24336)"/><defs><linearGradient id="paint0_linear_1314_24336" x1="719.916" y1="0" x2="719.916" y2="703" gradientUnits="userSpaceOnUse"><stop stop-color="#E9E5FD"/><stop offset="1" stop-color="#F4F6FF"/></linearGradient></defs></svg>