<svg width="1440" height="713" viewBox="0 0 1440 713" fill="none" xmlns="http://www.w3.org/2000/svg"><path opacity=".27" d="M37 414.652L-162 582v131h1602V49l-38.5-47.5L1373 97h-29.5l-22.5 69.5-27-34.5-26.5 91-22-50-22-24.643-16 12.643-11.5 62-41-11.5-15.5 54L1121 358l-15.5-18.5-12.5 80-15.5 37.5-38.5-15.5-12-83.5-16.5-40-26.5 40-28.5-78.5-44 24-56-92-55.5-8-35 62-27-42.5-33-19.5-22-55.143L659.5 173l-15 87.5-49-5.5-62 244.832L436.75 339.5 388.375 365 340 283.87 318.5 318 297 419.5l-43 57-43-57-21.5 73.5-21.5 26.191-29.5-42.691L106 511l-24-48-14.5-58.5L37 414.652z" fill="url(#paint0_linear_1520_39244)"/><path opacity=".2" d="M-162 582L37 414.652 67.5 404.5 82 463l24 48 32.5-34.5 29.5 42.691L189.5 493l21.5-73.5 43 57 43-57L318.5 318l21.5-34.13L388.375 365l48.375-25.5 96.75 160.332L595.5 255l49 5.5 15-87.5 23.5-24.643 22 55.143 33 19.5 27 42.5 35-62 55.5 8 56 92 44-24L984 358l26.5-40 16.5 40 12 83.5 38.5 15.5 15.5-37.5 12.5-80L1121 358l18.5-92.5 15.5-54 41 11.5 11.5-62 16-12.643 22 24.643 22 50 26.5-91 27 34.5 22.5-69.5h29.5l28.5-95.5L1440 49" stroke="url(#paint1_linear_1520_39244)"/><defs><linearGradient id="paint0_linear_1520_39244" x1="639" y1="1.5" x2="736" y2="392.5" gradientUnits="userSpaceOnUse"><stop/><stop offset="1" stop-opacity="0"/></linearGradient><linearGradient id="paint1_linear_1520_39244" x1="606" y1="72" x2="639" y2="582" gradientUnits="userSpaceOnUse"><stop stop-color="#fff"/><stop offset="1" stop-color="#fff" stop-opacity="0"/></linearGradient></defs></svg>