<svg width="1440" height="603" viewBox="0 0 1440 603" fill="none" xmlns="http://www.w3.org/2000/svg"><g opacity=".2" filter="url(#filter0_d_1314_24776)"><path d="M-147 582L52 414.652 82.5 404.5 97 463l24 48 32.5-34.5 29.5 42.691L204.5 493l21.5-73.5 43 57 43-57L333.5 318l21.5-34.13L403.375 365l48.375-25.5 96.75 160.332L610.5 255l49 5.5 15-87.5 23.5-24.643 22 55.143 33 19.5 27 42.5 35-62 55.5 8 56 92 44-24L999 358l26.5-40 16.5 40 12 83.5 38.5 15.5 15.5-37.5 12.5-80L1136 358l18.5-92.5 15.5-54 41 11.5 11.5-62 16-12.643 22 24.643 22 50 26.5-91 27 34.5 22.5-69.5h29.5l28.5-95.5L1455 49" stroke="url(#paint0_linear_1314_24776)"/></g><defs><linearGradient id="paint0_linear_1314_24776" x1="-76" y1="525.213" x2="1367.46" y2="337.89" gradientUnits="userSpaceOnUse"><stop stop-color="#27788A"/><stop offset=".328" stop-color="#7B5CAC"/><stop offset=".49" stop-color="#927CCF"/><stop offset=".677" stop-color="#7A3CCC"/><stop offset="1" stop-color="#2CB5D3"/></linearGradient><filter id="filter0_d_1314_24776" x="-157.322" y=".449" width="1622.71" height="601.934" filterUnits="userSpaceOnUse" color-interpolation-filters="sRGB"><feFlood flood-opacity="0" result="BackgroundImageFix"/><feColorMatrix in="SourceAlpha" values="0 0 0 0 0 0 0 0 0 0 0 0 0 0 0 0 0 0 127 0" result="hardAlpha"/><feOffset dy="10"/><feGaussianBlur stdDeviation="5"/><feComposite in2="hardAlpha" operator="out"/><feColorMatrix values="0 0 0 0 0.227451 0 0 0 0 0.0509804 0 0 0 0 0.521569 0 0 0 1 0"/><feBlend in2="BackgroundImageFix" result="effect1_dropShadow_1314_24776"/><feBlend in="SourceGraphic" in2="effect1_dropShadow_1314_24776" result="shape"/></filter></defs></svg>