<svg width="1419" height="671" viewBox="0 0 1419 671" fill="none" xmlns="http://www.w3.org/2000/svg"><path opacity=".04" fill-rule="evenodd" clip-rule="evenodd" d="M1387.45.21h2.2v5.136h-2.2V.209zM988.279 41.3h2.201v38.89h-2.201V41.3zm-68.24 107.13h-2.201v27.149h2.201V148.43zm-25.682 33.753h2.201v11.007l5.87-.001v63.838h-5.87v16.143h-2.201v-16.143h-5.871v-63.838l5.871.001v-11.007zm-234.805 15.409h2.201v38.89h-2.201v-38.89zm-21.278 7.338h-2.202v55.032h-5.87v49.897h5.87v38.889h2.202v-38.889h5.869v-49.897h-5.869V204.93zm-237.009 23.48h2.202v35.955h5.87v104.928h-13.942V264.365h5.87V228.41zm-256.083 30.085h-2.201v110.799h-5.87v82.915h5.87v98.325h2.201v-98.325h5.87v-82.915h-5.87V258.495zm-70.443 27.149h-2.201v77.779h-5.87v127.676h5.87v86.584h2.201v-86.584h5.87V363.423h-5.87v-77.779zm-25.68 75.578h2.201v38.89h-2.201v-38.89zm-46.96 53.565h2.2v82.915h5.87v61.637H4.3v38.889H2.1v-38.889h-5.871v-61.637h5.87v-82.915zm-15.41 102.727h-13.942v82.916h5.87v38.889h2.202V600.43h5.87v-82.916zM-50 549.066h13.942v82.915h-5.87v38.89h-2.202v-38.89H-50v-82.915zm77.78-114.468h-2.2v16.143h-5.87v55.033h5.87v38.889h2.2v-38.889h5.87v-55.033h-5.87v-16.143zm29.35-34.486v67.506h-5.87v38.89h-2.201v-38.89h-5.87v-67.506h13.94zm38.889 5.87h2.201v38.889h-2.2v-38.889zm8.071 38.889v37.422h-5.87v38.89h-2.2v-38.89h-5.87v-37.422h13.941zm17.611 26.416H119.5v3.669h-5.87v24.214h13.941v-24.214h-5.87v-3.669zm44.761-104.929h2.201v23.481h-2.201v-23.481zm8.071 23.481v30.084h-5.87v23.481h-2.201v-23.481h-5.87v-30.084h13.941zm9.54-100.526h13.941v105.662h-5.869v38.89h-2.202v-38.89h-5.87V289.313zm31.551 35.221h-2.202v68.24h2.202v-68.24zm5.87 99.792v-31.552h-13.942v31.552h5.87v38.89h2.202v-38.89h5.87zm23.481-79.247h-13.942v82.916h5.871v38.889h2.201v-38.889h5.87v-82.916zm15.408-33.019h2.201v69.708l5.87-.001v18.345h-13.942v-18.345l5.871.001V312.06zm0 109.331v-21.279h2.201v21.279h-2.201zm25.682-126.208h-2.201v84.383h-5.871v79.247h13.942v-79.247h-5.87v-84.383zm-2.201 163.63v79.247h2.201v-79.247h-2.201zm23.481-59.435h2.201v38.889h-2.201v-38.889zm8.071 38.89v118.87l-5.87-.001v38.89h-2.201v-38.89l-5.871.001v-118.87h13.942zm17.611-125.475h-2.201v85.851h2.201v-85.851zm-8.072 223.799h5.871v38.89h2.201v-38.89h5.87V398.644h-13.942v137.948zm29.35-175.37h2.201v23.481l5.87-.001v75.578h-13.941v-75.578l5.87.001v-23.481zm0 137.948v-38.89h2.201v38.89h-2.201zm25.682-206.188h-2.201v42.558h2.201v-42.558zm5.87 104.928v-62.37h-13.941v62.37h5.87v38.89h2.201v-38.89h5.87zm15.408 38.156v-66.772h2.202v66.772h-2.202zm25.683-172.435h-2.202v19.812h-5.87v22.013h13.942v-22.013h-5.87v-19.812zm-2.202 41.825v6.604h2.202v-6.604h-2.202zm31.553 6.604h-13.942v57.234h5.871V380.3h2.201v-11.006h5.87V312.06zm15.41-11.741h2.201v26.416h5.87v20.545h-5.87v57.234h-2.201V347.28h-5.871v-20.545h5.871v-26.416zm25.68 26.416h-2.201v5.87h-5.871v31.552h13.942v-31.552h-5.87v-5.87zm-2.201 37.422v5.87h2.201v-5.87h-2.201zm23.481-8.805h2.201v22.747h5.87v23.48h-13.942v-23.48h5.871v-22.747zm0 53.565v-7.338h2.201v7.338h-2.201zm25.68-67.507h-2.201v17.611h-5.87v110.798h13.941V359.021h-5.87V341.41zm-2.201 128.409v33.754h2.201v-33.754h-2.201zm23.481-159.961h2.201v10.273h5.87v82.916h-5.87v38.889h-2.201v-38.889h-5.87v-82.916h5.87v-10.273zm25.683-66.039h-2.202v6.604h2.202v-6.604zm5.869 57.968v-51.364H583.24v51.364h13.941zm-8.071 0v38.89h2.202v-38.89h-2.202zm23.481-71.175h2.202v13.208h-2.202v-13.208zm8.071 13.208v46.961h-5.869v14.675h-2.202v-14.675h-5.87V243.82h13.941zm46.961-7.338v68.24h-5.87v38.89h-2.201v-38.89h-5.871v-68.24h13.942zm17.609 29.35h-2.201v8.806h-5.871v15.409h5.871v71.175h2.201v-71.175h5.87v-15.409h-5.87v-8.806zm21.28-5.87h2.201v49.896h5.87v46.228h-13.942v-46.228h5.871v-49.896zm0 154.825v-58.701h2.201v58.701h-2.201zm25.682-198.851h-2.201v132.078h2.201V215.936zm5.87 161.429v-29.351h-13.942v29.351h5.871v38.89h2.201v-38.89h5.87zm15.41-157.76h2.201v96.124h-2.201v-96.124zm8.071 96.124v52.831h-5.87v38.889h-2.201V368.56h-5.87v-52.831h13.941zm9.54-71.176h13.941v30.085l-5.87-.001v38.89h-2.201v-38.89l-5.87.001v-30.085zm31.552 13.942h-2.201v38.889h2.201v-38.889zm5.87 77.045v-38.155h-13.941v38.155h5.87v38.89h2.201v-38.89h5.87zm15.408-92.454h2.202v85.117h5.869v46.227h-13.941v-46.227h5.87v-85.117zm0 170.233V374.43h2.202v38.889h-2.202zm17.611-158.493h13.941v82.916h-5.869v38.889h-2.202v-38.889h-5.87v-82.916zm31.551-57.234h-2.201v38.89h2.201v-38.89zm5.87 66.039v-27.149h-13.942v27.149h5.871v15.409h2.201v-15.409h5.87zm46.962-69.707v-18.345h-13.942v18.345l5.871-.001v38.89h2.201v-38.89l5.87.001zm15.41-22.014h2.201v10.273h5.87v26.416h-5.87v8.071h-2.201v-8.071h-5.871v-26.416h5.871V171.91zm25.682-8.805H964.8v38.89h2.201v-38.89zm5.87 65.305v-26.415h-13.942v26.415h5.871v21.28h2.201v-21.28h5.87zM996.35 80.19v135.013h-5.87v38.889h-2.201v-38.889h-5.87V80.19h13.941zm17.61-4.403h-2.2v85.117h-5.87v25.682h13.94v-25.682h-5.87V75.787zm-2.2 110.799v38.889h2.2v-38.889h-2.2zm23.48 18.344h2.2v19.078h5.87v15.409h-5.87v68.974h-2.2v-68.974h-5.87v-15.409h5.87V204.93zm25.68-13.208h-2.2v25.682h2.2v-25.682zm5.87 90.253v-64.571h-13.94v64.571h5.87v18.344h2.2v-18.344h5.87zm15.41-170.967h2.2v99.058h5.87v55.766h-13.94v-55.766h5.87v-99.058zm0 249.48v-94.656h2.2v94.656h-2.2zm25.68-148.22h-2.2v33.019h-5.87v44.76h5.87v106.396h2.2V290.047h5.87v-44.76h-5.87v-33.019zm21.28-20.546h2.2v8.805h5.87v113h-5.87v38.89h-2.2v-38.89h-5.87v-113h5.87v-8.805zm25.68 1.468h-2.2v24.948h-5.87v52.831h13.94v-52.831h-5.87V193.19zm-2.2 77.779v6.604h2.2v-6.604h-2.2zm23.48-63.838h2.2v16.877h-2.2v-16.877zm8.07 16.877v63.104h-5.87v13.207h-2.2v-13.207h-5.87v-63.104h13.94zm17.61-13.208h-2.2v11.007l-5.87-.001v13.942h5.87v11.74h2.2v-11.74h5.87v-13.942l-5.87.001V210.8zm21.28-74.11h2.21v19.078h5.87v65.305h-13.95v-65.305h5.87V136.69zm0 111.532v-27.149h2.21v27.149h-2.21zm25.69-96.857h-2.2v49.162h-5.88v54.299h13.95v-54.299h-5.87v-49.162zm-2.2 103.461v8.072h2.2v-8.072h-2.2zm31.55-67.507h-13.95v105.663h5.87v38.889h2.21v-38.889h5.87V187.319zm15.41 11.007h2.2v38.89h-2.2v-38.89zm8.07 38.89v8.805h-13.94v-8.805h13.94zm15.41-123.273h2.2v56.5h-2.2v-56.5zm8.07 56.5v41.825h-5.87v38.889h-2.2v-38.889h-5.87v-41.825h13.94zm17.61-87.318h-2.2v33.019h-5.87v37.422h13.94v-37.422h-5.87v-33.02zm-2.2 70.441v24.215h2.2v-24.215h-2.2zm23.48-70.441h2.2v5.87h5.87v27.883h-13.94V88.995h5.87v-5.87zm31.55-77.78v173.169h-5.87v38.89h-2.2v-38.89h-5.87V5.346h13.94zm9.54 60.17H1419v40.357l-5.87-.001v38.89h-2.2v-38.89l-5.87.001V65.514z" fill="url(#paint0_linear_1314_24561)"/><defs><linearGradient id="paint0_linear_1314_24561" x1="684.5" y1=".209" x2="684.5" y2="670.871" gradientUnits="userSpaceOnUse"><stop stop-color="#E9E5FD"/><stop offset="1" stop-color="#F4F6FF"/></linearGradient></defs></svg>