<svg width="151" height="28" viewBox="0 0 151 28" fill="none" xmlns="http://www.w3.org/2000/svg"><path fill-rule="evenodd" clip-rule="evenodd" d="M5.353.903h17.496a4.573 4.573 0 014.561 4.561v17.497a4.572 4.572 0 01-4.56 4.56H5.352a4.573 4.573 0 01-4.561-4.56V5.463a4.573 4.573 0 014.56-4.56zm19.544 24.07a2.9 2.9 0 00.85-2.04V5.46a2.9 2.9 0 00-2.892-2.891H5.384A2.9 2.9 0 002.492 5.46v17.472a2.9 2.9 0 002.891 2.891h17.472a2.9 2.9 0 002.042-.85zM5.383 26.095h17.473H5.383a3.171 3.171 0 01-3.162-3.162V5.46v17.472a3.171 3.171 0 003.162 3.162zm-.03-24.92h17.496c2.36 0 4.29 1.931 4.29 4.29v17.497V5.463c0-2.359-1.93-4.29-4.29-4.29H5.353zm4.679 18.32l-4.422-7.3a.177.177 0 01.073-.227c.139-.094.283.039.283.039l4.26 4.168c.037.036.069.07.099.101.124.13.206.216.35.211.108-.003.19-.167.25-.289l.022-.045 1.596-3.057c.275-.524.794-.398 1.009-.105.135.184 1.232 1.32 1.904 2.017.25.26.443.458.504.524.251.27.445.357.77-.159.234-.373 3.075-4.294 3.128-4.363l.02-.025c.055-.07.135-.173.116-.272-.019-.092-.12-.108-.219-.124l-.017-.003a38.6 38.6 0 00-1.144-.152l-.06-.006c-.141-.013-.311-.028-.32-.18-.008-.149.1-.18.298-.24a2.05 2.05 0 00.116-.035A509.44 509.44 0 0022.25 8.74c.085-.03.217-.069.294-.002.088.075.061.196.046.263l-.004.02-.224 1.094c-.246 1.2-.607 2.969-.63 3.072-.015.071-.063.235-.213.23-.166-.005-.201-.149-.221-.229l-.003-.011c-.023-.09-.143-.511-.237-.841a85.054 85.054 0 01-.113-.398l-.002-.01c-.02-.076-.054-.2-.203-.223-.137-.022-.213.086-.293.222-.094.157-3.383 5.431-3.483 5.59l-.012.02c-.06.097-.215.35-.545.352-.26.003-.449-.226-.55-.349a558.032 558.032 0 01-2.036-2.419l-.003-.005c-.041-.05-.147-.182-.276-.186-.16-.005-.215.096-.252.165a1486.756 1486.756 0 01-2.73 4.412c-.162.313-.39.291-.528-.013zM124.064 6.439a.4.4 0 00-.102.278V20.69c0 .263.131.394.392.394h.932c.275 0 .413-.131.413-.394v-3.556l1.163-1.2 4.005 4.857c.038.09.099.167.179.224.068.047.15.072.233.072h1.541a.47.47 0 00.209-.032.125.125 0 00.048-.055.12.12 0 00.01-.073.816.816 0 00-.021-.155.398.398 0 00-.112-.194h.017l-4.926-5.839 4.361-4.528a.465.465 0 00.099-.296.188.188 0 00-.019-.084.193.193 0 00-.052-.068.34.34 0 00-.226-.063h-1.36a.509.509 0 00-.274.067 1.321 1.321 0 00-.219.166l-4.655 4.941V6.717a.358.358 0 00-.127-.287.431.431 0 00-.287-.107h-.932a.365.365 0 00-.29.116zm-69.266 4.417c.16-.204.34-.39.536-.56a2.92 2.92 0 01.638-.417c.255-.118.525-.204.801-.255.343-.063.69-.093 1.04-.089a4.293 4.293 0 013.255 1.42c.404.45.718.975.922 1.545.221.608.332 1.252.328 1.899v6.076a.608.608 0 01-.157.457.553.553 0 01-.399.152H61.1c-.22 0-.363-.045-.425-.128a.813.813 0 01-.095-.448v-6.114a3.498 3.498 0 00-.183-1.098 3.266 3.266 0 00-.546-1.02 2.837 2.837 0 00-.905-.742 2.635 2.635 0 00-1.25-.287 3.079 3.079 0 00-1.965.725 2.698 2.698 0 00-.932 2.1v6.62c0 .263-.128.395-.394.395h-.924c-.28 0-.42-.132-.42-.394V6.717a.373.373 0 01.117-.287.394.394 0 01.278-.107h.936a.397.397 0 01.385.244.37.37 0 01.028.15l-.006 4.139zm-18.335-.816c.114.298.26.678.439 1.138l.582 1.491.65 1.657a410.42 410.42 0 001.209 3.023c.17.421.305.754.407 1a940.733 940.733 0 003.225-8.311.576.576 0 01.179-.243.477.477 0 01.295-.089h1c.263 0 .395.104.395.314a.24.24 0 01-.01.062.734.734 0 01-.026.08.567.567 0 00-.027.1l-.87 2.132 2.367 5.956.393-1c.167-.42.35-.887.551-1.401.2-.518.41-1.058.637-1.627.227-.568.435-1.117.637-1.656.15-.396.293-.767.43-1.118v-.003l.002-.004.002-.004.14-.363c.177-.459.321-.838.433-1.138a.59.59 0 01.18-.242.477.477 0 01.296-.09h.994c.263 0 .394.105.394.314a.24.24 0 01-.01.063.727.727 0 01-.026.08.561.561 0 00-.027.1l-4.263 10.492a.695.695 0 00-.05.103.287.287 0 01-.071.107.436.436 0 01-.128.085.58.58 0 01-.223.036h-.59a.584.584 0 01-.224-.036.435.435 0 01-.128-.085.304.304 0 01-.07-.107.715.715 0 00-.05-.103l-2.514-6.1-2.473 6.1a.715.715 0 00-.05.103.287.287 0 01-.07.107.417.417 0 01-.128.085.58.58 0 01-.223.036h-.594a.583.583 0 01-.224-.036.436.436 0 01-.128-.085.321.321 0 01-.071-.107.695.695 0 00-.05-.103l-4.31-10.489-.018-.062a.787.787 0 01-.018-.179c0-.209.137-.313.411-.313h.941a.47.47 0 01.296.09c.08.062.142.145.18.24zm35.934 10.77a5.719 5.719 0 001.792-1.241v1.124a.383.383 0 00.25.368c.051.02.107.028.162.026h.932a.398.398 0 00.278-.107.373.373 0 00.115-.287V10.097c0-.266-.14-.394-.42-.394h-.923c-.266 0-.394.14-.394.394v1.094a5.695 5.695 0 00-1.792-1.24 5.394 5.394 0 00-2.212-.453 5.657 5.657 0 00-1.549.21 5.923 5.923 0 00-2.589 1.518 6.077 6.077 0 00-.927 1.191c-.26.44-.462.91-.6 1.402a5.813 5.813 0 00.6 4.51 6.065 6.065 0 002.12 2.123c.89.53 1.907.811 2.945.812a5.414 5.414 0 002.212-.453zm1.559-7.054c.215.508.324 1.055.322 1.607l-.003.005a4.103 4.103 0 01-.313 1.603 4.424 4.424 0 01-.877 1.358c-.37.391-.812.709-1.3.935a3.697 3.697 0 01-1.589.35 3.638 3.638 0 01-1.58-.349 4.236 4.236 0 01-1.288-.935 4.4 4.4 0 01-.868-1.357 4.218 4.218 0 010-3.211 4.215 4.215 0 012.156-2.252 3.724 3.724 0 011.58-.34 3.785 3.785 0 011.582.333 4.224 4.224 0 012.178 2.253zm7.425 7.452a3.55 3.55 0 01-.828-.098 2 2 0 01-.748-.344 1.822 1.822 0 01-.542-.672 2.46 2.46 0 01-.212-1.088V11.24h-1.038a.637.637 0 01-.332-.068c-.071-.045-.107-.145-.107-.3v-.833c0-.156.036-.252.107-.29a.716.716 0 01.332-.06h1.038V7.78a.315.315 0 01.064-.22.481.481 0 01.214-.112c.073-.018.146-.03.22-.039.11-.015.225-.034.345-.059l.466-.08a.488.488 0 01.241.018c.054.02.099.057.128.107a.427.427 0 01.05.166c0 .03.001.06.004.092.002.034.004.07.004.109v1.926h1.245a.423.423 0 01.3.09.436.436 0 01.094.322v.707a.47.47 0 01-.094.331.396.396 0 01-.3.1h-1.245v7.748a.537.537 0 00.152.438c.12.092.27.137.422.128a.48.48 0 01.34.127.454.454 0 01.128.35v.734a.434.434 0 01-.128.326.456.456 0 01-.32.12zm2.015-2.566c.017.075.037.148.063.22.14.394.363.755.652 1.059a4.1 4.1 0 00.959.744 4.41 4.41 0 001.124.438c.38.094.769.142 1.16.144a5.6 5.6 0 001.657-.233c.475-.139.92-.365 1.311-.668a3.07 3.07 0 00.86-1.056 3.12 3.12 0 00.31-1.402 2.816 2.816 0 00-.278-1.267 3.058 3.058 0 00-.78-.982 4.891 4.891 0 00-1.204-.725 9.08 9.08 0 00-1.554-.5 6.434 6.434 0 01-.764-.243 4.027 4.027 0 01-.726-.367 2.317 2.317 0 01-.545-.48.892.892 0 01-.216-.578 1.395 1.395 0 01.175-.711c.115-.2.274-.37.465-.497.201-.134.424-.232.66-.287.25-.06.506-.091.764-.09.256-.006.512.03.757.103.202.064.394.158.569.278.164.115.315.249.448.399.131.148.265.304.403.466a.774.774 0 00.232.205c.071.036.177.016.315-.062l.697-.528a.317.317 0 00.163-.255.737.737 0 00-.118-.308 10.926 10.926 0 00-.67-.838 3.342 3.342 0 00-.708-.609 2.999 2.999 0 00-.884-.372 4.876 4.876 0 00-1.186-.127 4.801 4.801 0 00-1.54.23c-.435.14-.84.363-1.19.655-.33.276-.594.622-.775 1.011a3.03 3.03 0 00-.278 1.308c-.006.405.073.806.232 1.179.159.354.39.67.677.931.322.29.684.53 1.074.717.462.22.943.395 1.438.524.305.082.61.164.919.24.288.071.568.175.832.31.234.118.44.285.605.488.164.226.246.5.233.78.006.278-.08.55-.246.774a1.96 1.96 0 01-.61.533 2.98 2.98 0 01-.775.305 3.222 3.222 0 01-.752.098 2.63 2.63 0 01-.6-.085 3.375 3.375 0 01-.69-.254 2.805 2.805 0 01-.63-.435 1.588 1.588 0 01-.426-.614.793.793 0 00-.198-.273.32.32 0 00-.349-.023l-.85.395a.598.598 0 00-.14.09.28.28 0 00-.072.101.254.254 0 000 .144zM96.49 21.21a3.56 3.56 0 01-.829-.098 2.008 2.008 0 01-.748-.344 1.82 1.82 0 01-.54-.672 2.442 2.442 0 01-.212-1.089v-7.765h-1.039a.628.628 0 01-.331-.068c-.072-.045-.107-.145-.107-.3v-.833c0-.156.035-.252.107-.29a.713.713 0 01.331-.06h1.035V7.78a.315.315 0 01.064-.22.482.482 0 01.214-.112 1.62 1.62 0 01.22-.039 5.6 5.6 0 00.345-.06l.465-.08a.492.492 0 01.242.018c.054.02.099.057.128.107a.427.427 0 01.05.166c0 .03 0 .06.003.091m.602 13.558a.452.452 0 00.174-.029l-.174.029zm.174-.029a.448.448 0 00.15-.092l-.15.092zm.15-.092a.429.429 0 00.098-.15l-.099.15zm.098-.15a.428.428 0 00.029-.176l-.03.176zm.029-.176v-.735.735zm0-.735a.456.456 0 00-.03-.189l.03.19zm-.03-.189a.457.457 0 00-.104-.16l.104.16zm-.104-.16a.482.482 0 00-.342-.127l.342.127zm-.342-.127a.637.637 0 01-.42-.128l.42.128zm-.42-.128a.537.537 0 01-.127-.202l.127.202zm-.127-.202a.538.538 0 01-.026-.236l.026.236zm-.026-.236v-7.748 7.748zm0-7.748h1.245-1.245zm1.245 0a.398.398 0 00.16-.019l-.16.019zm.16-.019a.399.399 0 00.14-.08l-.14.08zm.14-.08a.47.47 0 00.094-.332l-.093.331zm.094-.332v-.707.707zm0-.707a.435.435 0 00-.015-.17l.015.17zm-.015-.17a.434.434 0 00-.078-.152l.078.152zm-.078-.152a.425.425 0 00-.3-.09l.3.09zm-.3-.09h-1.246 1.245zm-1.246 0V7.76v1.926zm0-1.926c0-.038-.002-.075-.004-.11l.004.11zm3.156 5.373a5.61 5.61 0 00-.47 2.28c0 .527.075 1.05.221 1.554a5.961 5.961 0 004.119 4.112 5.826 5.826 0 003.093 0 5.92 5.92 0 002.594-1.524c.357-.357.668-.757.928-1.19a5.774 5.774 0 00.6-4.51 5.863 5.863 0 00-.6-1.402 6.068 6.068 0 00-2.12-2.122 5.808 5.808 0 00-2.953-.815 5.6 5.6 0 00-2.269.467 5.98 5.98 0 00-1.868 1.274 6.14 6.14 0 00-1.275 1.877zm1.637 3.892a4.072 4.072 0 01-.323-1.611h-.001a4.09 4.09 0 01.324-1.604c.207-.502.504-.962.876-1.357a4.29 4.29 0 011.299-.936 3.698 3.698 0 011.595-.349 3.644 3.644 0 011.58.35c.486.227.923.544 1.29.935.37.396.665.856.869 1.357a4.23 4.23 0 010 3.215 4.227 4.227 0 01-2.159 2.25 3.749 3.749 0 01-1.58.338 3.807 3.807 0 01-1.595-.339 4.25 4.25 0 01-2.175-2.25zm19.835 1.47c.042-.036.09-.073.141-.113a.509.509 0 01.16-.085.276.276 0 01.17 0 .4.4 0 01.176.144l.29.394c.075.102.135.182.184.242.025.03.046.06.064.085h.001a.72.72 0 00.043.058c.028.046.053.094.075.144.021.05.025.104.013.156a.495.495 0 01-.093.189 1.254 1.254 0 01-.238.227 6.811 6.811 0 01-.802.55 6.015 6.015 0 01-.873.427 5.496 5.496 0 01-2.033.375 5.685 5.685 0 01-1.541-.209 5.992 5.992 0 01-1.402-.6 6.159 6.159 0 01-2.136-2.119 5.72 5.72 0 010-5.913 6.128 6.128 0 012.136-2.117c.439-.26.91-.462 1.402-.6a5.634 5.634 0 011.541-.212c.335 0 .67.032.999.095.326.06.646.145.959.255.299.107.589.238.868.39a4.94 4.94 0 01.876.603l.002.001a.716.716 0 01.144.153c.038.056.064.12.075.188a.33.33 0 01-.045.219l-.653.86c-.156.204-.336.2-.538-.009a3.067 3.067 0 00-.555-.452 4.226 4.226 0 00-1.416-.578 3.576 3.576 0 00-2.286.26 4.327 4.327 0 00-1.3.922 4.618 4.618 0 00-.904 1.352 3.937 3.937 0 00-.34 1.621 3.98 3.98 0 00.339 1.634 4.334 4.334 0 002.203 2.248 3.667 3.667 0 001.536.336 3.572 3.572 0 001.619-.348c.211-.102.413-.222.604-.358.184-.134.363-.272.535-.416zm13.769.366a2.097 2.097 0 01-.064-.219.252.252 0 010-.144.267.267 0 01.071-.102.592.592 0 01.139-.089l.852-.395a.318.318 0 01.349.023.784.784 0 01.196.273c.092.235.238.445.426.614.191.173.406.32.637.434.22.11.451.196.69.255.196.052.397.08.6.085.254-.004.506-.036.752-.099a2.97 2.97 0 00.775-.304 1.96 1.96 0 00.609-.533c.166-.224.252-.496.246-.775a1.22 1.22 0 00-.233-.779 1.826 1.826 0 00-.604-.488 3.852 3.852 0 00-.834-.31 45.485 45.485 0 01-.918-.24 8.043 8.043 0 01-1.437-.524 4.519 4.519 0 01-1.075-.716 2.821 2.821 0 01-.676-.932 2.86 2.86 0 01-.232-1.18 3.04 3.04 0 01.276-1.307 2.96 2.96 0 01.775-1.01 3.576 3.576 0 011.192-.656 4.799 4.799 0 011.529-.232 4.89 4.89 0 011.187.128c.312.076.611.201.883.372.263.169.501.374.706.61.216.24.44.519.672.837a.716.716 0 01.117.308c0 .087-.048.172-.16.255l-.699.528c-.138.077-.243.098-.315.062a.783.783 0 01-.232-.205 23.698 23.698 0 00-.404-.467 2.516 2.516 0 00-.447-.399 2.156 2.156 0 00-.569-.277 2.46 2.46 0 00-.757-.104c-.257 0-.514.03-.764.09a2.037 2.037 0 00-.659.288c-.191.128-.35.298-.466.497a1.38 1.38 0 00-.174.71.89.89 0 00.214.58c.156.187.341.348.547.479.228.146.471.27.725.367.25.096.505.177.765.242a9.12 9.12 0 011.555.5 4.97 4.97 0 011.204.726c.325.27.591.604.78.982.19.395.284.828.277 1.266a3.12 3.12 0 01-.309 1.402 3.077 3.077 0 01-.86 1.057 3.98 3.98 0 01-1.312.668 5.63 5.63 0 01-1.656.233 4.937 4.937 0 01-1.16-.144 4.44 4.44 0 01-1.126-.438c-.354-.2-.677-.45-.957-.745a2.987 2.987 0 01-.647-1.058z" fill="#1E2A4B"/></svg>