<svg width="81" height="80" viewBox="0 0 81 80" fill="none" xmlns="http://www.w3.org/2000/svg"><path d="M17.204 16.614l32.222-4.601a1.282 1.282 0 011.464 1.269v53.437a1.283 1.283 0 01-1.461 1.268l-32.227-4.6A2.564 2.564 0 0115 60.847V19.152a2.563 2.563 0 012.202-2.538h.002zm2.925 4.763v37.246l25.634 3.663V17.714L20.13 21.377zm33.325 36.567h7.69V22.056h-7.69V16.93h10.253a2.563 2.563 0 012.563 2.563v41.014a2.563 2.563 0 01-2.563 2.564H53.454v-5.127z" fill="url(#paint0_linear_1314_25065)"/><defs><linearGradient id="paint0_linear_1314_25065" x1="68.522" y1="40" x2="15" y2="40" gradientUnits="userSpaceOnUse"><stop stop-color="#1FFFF2"/><stop offset="1" stop-color="#712FFF"/></linearGradient></defs></svg>