<svg width="81" height="80" viewBox="0 0 81 80" fill="none" xmlns="http://www.w3.org/2000/svg"><path fill-rule="evenodd" clip-rule="evenodd" d="M66 8H22c-3.314 0-6 2.684-6 6v4h-2c-3.314 0-6 2.684-6 6v40a8 8 0 008 8h48a8 8 0 008-8V14a6 6 0 00-6-6zm2 56c0 2.204-1.796 4-4 4H16c-2.206 0-4-1.796-4-4V24a2 2 0 012-2h2v40c0 1.106.894 2 2 2 1.106 0 2-.894 2-2V14a2 2 0 012-2h44c1.102 0 2 .896 2 2v50zM46.997 34.01h16a1 1 0 100-2h-16c-.55 0-1 .448-1 1s.45 1 1 1zm16-6h-16c-.55 0-1-.448-1-1s.45-1 1-1h16a1 1 0 110 2zm-16-6h16a1 1 0 100-2h-16c-.55 0-1 .448-1 1s.45 1 1 1zM25 62.008h16a1 1 0 010 2H25a1 1 0 110-2zm16-6H25a1 1 0 100 2h16a1 1 0 000-2zm-16-6h16a1 1 0 010 2H25a1 1 0 110-2zm38 12H47a1 1 0 000 2h16a1 1 0 000-2zm-16-6h16a1 1 0 010 2H47a1 1 0 010-2zm16-6H47a1 1 0 000 2h16a1 1 0 000-2zm-38-12h38c.55 0 1 .448 1 1s-.45 1-1 1H25a1 1 0 010-2zm38 6H25a1 1 0 100 2h38a1 1 0 000-2zM40 34H26a2 2 0 01-2-2V18.008c0-1.106.894-2 2-2h14c1.106 0 2 .894 2 2V32c0 1.106-.894 2-2 2zm-2-14H28v10h10V20z" fill="url(#paint0_linear_1314_25038)"/><defs><linearGradient id="paint0_linear_1314_25038" x1="74.811" y1="40" x2="8" y2="40" gradientUnits="userSpaceOnUse"><stop stop-color="#1FFFF2"/><stop offset="1" stop-color="#712FFF"/></linearGradient></defs></svg>