<svg width="163" height="114" viewBox="0 0 163 114" fill="none" xmlns="http://www.w3.org/2000/svg"><path d="M10.3 18.591L88.246 28.86a4 4 0 013.45 3.506L98.088 87.6a2 2 0 01-1.974 2.23l-76.735.465a4 4 0 01-4-3.558L8.051 20.795a2 2 0 012.25-2.204z" fill="#070C1A"/><path d="M12.52 15.458l77.944 10.269a4 4 0 013.451 3.506l6.391 55.234a2 2 0 01-1.975 2.23l-76.734.465a4 4 0 01-4-3.558L10.27 17.662a2 2 0 012.25-2.204z" fill="url(#paint0_linear_1314_24184)"/><path d="M38.309 33.63l-14.042-.877a1 1 0 01-.918-.802l-.579-2.895a1 1 0 011.101-1.189l14.366 1.741a1 1 0 01.872.87l.254 2.03a1 1 0 01-1.054 1.122z" fill="#F2C94C"/><path d="M86.78 45.672l3.992 32.113H28.895v-1.934l12.352-13.593a7 7 0 017.494-1.899l5.975 2.092a7 7 0 008.132-2.715l1.285-1.92a5.783 5.783 0 017.118-2.087 5.783 5.783 0 006.337-1.148l9.192-8.91z" fill="url(#paint1_linear_1314_24184)"/><path d="M28.447 77.785l10.718-19.798a5 5 0 015.669-2.455l7.925 2.084a5 5 0 004.32-.874l5.703-4.388a5 5 0 015.186-.559l3.74 1.767a5 5 0 004.14.06l11.007-4.817" stroke="#F2C94C"/><path d="M23.499 37.208l5.004 40.534 10.761-29.7a5 5 0 016.53-2.95l5.946 2.335a5 5 0 005.6-1.373l4.728-5.436a5 5 0 016.657-.804l2.04 1.44a5 5 0 005.619.1l10.167-6.648" stroke="#6518E1"/><g filter="url(#filter0_f_1314_24184)"><path d="M93.564 76.007l52.53-4.329c1.64-.135 2.732 1.656 1.862 3.052l-14.627 23.459a3 3 0 01-2.725 1.407l-50.325-3.002c-1.607-.096-2.448-1.955-1.46-3.225l12.624-16.215a3 3 0 012.121-1.147z" fill="url(#paint2_linear_1314_24184)" fill-opacity=".5"/></g><path d="M87.038 33.792l53.383-5.226a2 2 0 012.151 2.404l-14.133 66.846a3 3 0 01-3.28 2.359l-50.912-5.903a3 3 0 01-2.584-3.626L83.522 36.91a4 4 0 013.516-3.119z" fill="#4201AA"/><path d="M84.563 31.617l53.383-5.226a2 2 0 012.152 2.404L125.965 95.64a3 3 0 01-3.281 2.36l-50.911-5.903a3 3 0 01-2.584-3.627l11.858-53.734a4 4 0 013.516-3.119z" fill="url(#paint3_linear_1314_24184)"/><path d="M81.672 59.238l10.519-.215m-9.694-3.085l9.694-.206m-8.869-3.094l16.913-.413" stroke="#fff" stroke-linecap="round"/><path d="M87.94 39.13l17.196-1.249a1 1 0 011.057 1.176l-1.133 6.228a2 2 0 01-1.889 1.64l-18.116.711a1 1 0 01-1.011-1.233l1.197-4.981a3 3 0 012.7-2.292zm44.988-5.706c-.244.385-.649.566-.906.404-.256-.162-.267-.606-.023-.991.243-.385.648-.566.905-.404.256.162.267.606.024.99zm2.864-.166c-.244.385-.649.566-.905.404-.257-.162-.267-.606-.024-.991.243-.385.649-.566.905-.404.257.162.267.606.024.99z" fill="#BC9BF1"/><path d="M98.127 73.003c-.565 5.236.253 10.02 2.286 13.379 2.032 3.358 5.128 5.036 8.655 4.693 3.527-.343 7.219-2.682 10.325-6.54 3.105-3.859 5.39-8.946 6.387-14.224l-6.152.035c-.547 2.897-1.801 5.69-3.506 7.807-1.704 2.118-3.731 3.402-5.667 3.59-1.936.189-3.635-.732-4.751-2.576-1.116-1.843-1.564-4.47-1.254-7.343l-6.323 1.179z" fill="#F2C94C"/><path d="M98.127 73.003c-.405 3.756-.101 7.31.878 10.276.98 2.966 2.598 5.23 4.68 6.547l3.815-8.768c-1.142-.723-2.031-1.966-2.568-3.594-.538-1.627-.705-3.578-.482-5.64l-6.323 1.179z" fill="#219653"/><path d="M98.111 73.16a33.8 33.8 0 012.056-8.553c1.061-2.775 2.459-5.351 4.105-7.563 1.646-2.211 3.504-4.01 5.453-5.279 1.949-1.269 3.947-1.981 5.866-2.091 1.919-.11 3.716.385 5.276 1.454 1.56 1.068 2.849 2.687 3.783 4.75.934 2.064 1.493 4.528 1.642 7.234.148 2.707-.117 5.595-.78 8.48l-6.031-.543c.364-1.583.51-3.169.428-4.654-.082-1.485-.389-2.838-.901-3.97-.513-1.134-1.22-2.022-2.077-2.608a4.575 4.575 0 00-2.896-.798c-1.053.06-2.15.45-3.22 1.148-1.069.696-2.089 1.683-2.992 2.897-.904 1.214-1.671 2.628-2.254 4.151a18.545 18.545 0 00-1.128 4.695l-6.33 1.25z" fill="#F2994A"/><defs><linearGradient id="paint0_linear_1314_24184" x1="55.275" y1="15.125" x2="55.275" y2="87.184" gradientUnits="userSpaceOnUse"><stop stop-color="#1E2A4B"/><stop offset="1" stop-color="#1E2A4B" stop-opacity="0"/></linearGradient><linearGradient id="paint1_linear_1314_24184" x1="59.834" y1="45.672" x2="59.834" y2="77.785" gradientUnits="userSpaceOnUse"><stop offset=".073" stop-color="#6518E1"/><stop offset="1" stop-color="#1E2A4B"/></linearGradient><linearGradient id="paint2_linear_1314_24184" x1="120.091" y1="97.901" x2="149.666" y2="79.815" gradientUnits="userSpaceOnUse"><stop stop-color="#4201AA"/><stop offset="1" stop-color="#4201AA" stop-opacity="0"/></linearGradient><linearGradient id="paint3_linear_1314_24184" x1="104.567" y1="26.125" x2="104.567" y2="98.314" gradientUnits="userSpaceOnUse"><stop stop-color="#6518E1"/><stop offset="1" stop-color="#6518E1" stop-opacity="0"/></linearGradient><filter id="filter0_f_1314_24184" x="64.395" y="57.671" width="97.868" height="55.93" filterUnits="userSpaceOnUse" color-interpolation-filters="sRGB"><feFlood flood-opacity="0" result="BackgroundImageFix"/><feBlend in="SourceGraphic" in2="BackgroundImageFix" result="shape"/><feGaussianBlur stdDeviation="7" result="effect1_foregroundBlur_1314_24184"/></filter></defs></svg>