<svg width="81" height="80" viewBox="0 0 81 80" fill="none" xmlns="http://www.w3.org/2000/svg"><path d="M8.95 54.85h62.5a3.75 3.75 0 010 7.5H8.95a3.75 3.75 0 110-7.5z" fill="#7346FE"/><path d="M5.725 22.675a1.675 1.675 0 012.85-1.35L19.95 33.05a3.874 3.874 0 005.6 0l13.5-13.925a1.7 1.7 0 012.5 0l13.5 13.925a3.874 3.874 0 005.6 0l11.375-11.725a1.675 1.675 0 011.9-.35 1.7 1.7 0 01.95 1.7L71.55 54.85H9.05L5.725 22.675z" fill="url(#paint0_linear_1314_25003)"/><path fill-rule="evenodd" clip-rule="evenodd" d="M41.5 43.175a1.675 1.675 0 01-1.25.525 1.776 1.776 0 01-1.275-.525l-5.125-5a1.775 1.775 0 010-2.5l5.125-5.125A1.774 1.774 0 0140.25 30a1.676 1.676 0 011.25.525l5.15 5.125a1.775 1.775 0 010 2.5l-5.15 5.025z" fill="#fff"/><path d="M16.775 47.975A1.875 1.875 0 1015.25 50a1.875 1.875 0 001.6-2.125M15.8 41.1a1.874 1.874 0 10-3.71.534 1.874 1.874 0 003.71-.534zm-.975-6.9a1.9 1.9 0 00-2.075-1.7 1.875 1.875 0 00-1.575 2.125 1.824 1.824 0 002.1 1.6 1.877 1.877 0 001.6-2.125l-.05.1zm48.9 13.775A1.875 1.875 0 1165.25 50a1.875 1.875 0 01-1.6-2.125M64.7 41.1a1.874 1.874 0 113.71.534 1.874 1.874 0 01-3.71-.534zm.975-6.9a1.876 1.876 0 013.416-.955 1.874 1.874 0 01.284 1.48 1.875 1.875 0 11-3.7-.525z" fill="#fff"/><defs><linearGradient id="paint0_linear_1314_25003" x1="77.921" y1="36.714" x2="5.717" y2="36.714" gradientUnits="userSpaceOnUse"><stop stop-color="#1FFFF2"/><stop offset="1" stop-color="#712FFF"/></linearGradient></defs></svg>