<svg width="78" height="80" viewBox="0 0 78 80" fill="none" xmlns="http://www.w3.org/2000/svg"><path d="M39 12c-15.468 0-28 12.532-28 28s12.532 28 28 28 28-12.532 28-28-12.532-28-28-28zm0 50.58c-12.453 0-22.58-10.127-22.58-22.58 0-12.453 10.127-22.58 22.58-22.58 12.453 0 22.58 10.127 22.58 22.58 0 12.453-10.127 22.58-22.58 22.58zm-9.032-24.386a3.609 3.609 0 003.613-3.613 3.61 3.61 0 00-3.613-3.613 3.61 3.61 0 00-3.613 3.613 3.61 3.61 0 003.613 3.612zm18.064 0a3.61 3.61 0 003.613-3.613 3.61 3.61 0 00-3.613-3.613 3.61 3.61 0 00-3.613 3.613 3.609 3.609 0 003.613 3.612zm.452 8.196A12.321 12.321 0 0139 50.84c-3.67 0-7.136-1.615-9.484-4.449a2.718 2.718 0 00-3.816-.35 2.717 2.717 0 00-.35 3.816A17.722 17.722 0 0039 56.246a17.722 17.722 0 0013.65-6.39 2.706 2.706 0 00-.35-3.816 2.718 2.718 0 00-3.816.35z" fill="url(#paint0_linear_1314_25056)"/><defs><linearGradient id="paint0_linear_1314_25056" x1="69.46" y1="40" x2="11" y2="40" gradientUnits="userSpaceOnUse"><stop stop-color="#1FFFF2"/><stop offset="1" stop-color="#712FFF"/></linearGradient></defs></svg>