<svg width="81" height="80" viewBox="0 0 81 80" fill="none" xmlns="http://www.w3.org/2000/svg"><path d="M27.5 25v-7.5A2.5 2.5 0 0130 15h20a2.5 2.5 0 012.5 2.5V25h10a2.5 2.5 0 012.5 2.5v35a2.5 2.5 0 01-2.5 2.5h-45a2.5 2.5 0 01-2.5-2.5v-35a2.5 2.5 0 012.5-2.5h10zM60 45H20v15h40V45zm0-15H20v10h7.5v-5h5v5h15v-5h5v5H60V30zM32.5 20v5h15v-5h-15z" fill="url(#paint0_linear_1314_25060)"/><defs><linearGradient id="paint0_linear_1314_25060" x1="67.196" y1="40" x2="15" y2="40" gradientUnits="userSpaceOnUse"><stop stop-color="#1FFFF2"/><stop offset="1" stop-color="#712FFF"/></linearGradient></defs></svg>