<svg width="127" height="80" viewBox="0 0 127 80" fill="none" xmlns="http://www.w3.org/2000/svg"><g filter="url(#filter0_f_1314_24116)"><path d="M78.19 49.05l36.167-2.99c1.193-.098 1.988 1.204 1.357 2.22l-10.019 16.115a2.183 2.183 0 01-1.985 1.027L69.079 63.35c-1.17-.07-1.782-1.42-1.063-2.346l8.629-11.117a2.184 2.184 0 011.545-.837z" fill="url(#paint0_linear_1314_24116)" fill-opacity=".5"/></g><g filter="url(#filter1_f_1314_24116)"><path d="M64.285 44.871l-51.602-3.836c-1.188-.089-1.973 1.209-1.345 2.22l10.06 16.18a2.181 2.181 0 001.915 1.03l49.98-1.385c1.192-.033 1.841-1.407 1.11-2.349l-8.555-11.02a2.184 2.184 0 00-1.563-.84z" fill="url(#paint1_linear_1314_24116)" fill-opacity=".5"/></g><path d="M75.19 29.009l36.407-3.01a1.456 1.456 0 011.512 1.88l-11.095 35.982a2.183 2.183 0 01-2.217 1.537l-35.102-2.1a1.456 1.456 0 01-1.3-1.898l9.894-30.881a2.184 2.184 0 011.9-1.51z" fill="#4201AA"/><path d="M73.866 27.686l36.408-3.009a1.456 1.456 0 011.511 1.88L100.691 62.54a2.183 2.183 0 01-2.217 1.536l-35.102-2.1a1.456 1.456 0 01-1.3-1.898l9.894-30.88a2.184 2.184 0 011.9-1.51z" fill="url(#paint2_linear_1314_24116)"/><path d="M67.451 56.902l2.976-9.258m1.654 9.258l4.96-14.88m-.332 14.88l1.488-4.629.744-2.315m2.398 6.944l1.488-4.629 4.133-12.565m-.992 17.193l3.637-11.242m.992 11.243l.744-2.315m3.885 2.315l2.975-9.258" stroke="#BC9BF1" stroke-width="2.184" stroke-linecap="round"/><path d="M74.85 31.75l5.476-.26a.728.728 0 01.734.927l-.239.836a.728.728 0 01-.666.527l-5.592.254a.728.728 0 01-.703-1.014l.356-.829a.728.728 0 01.634-.44zm26.391.03c-.195.31-.52.454-.726.324-.205-.13-.214-.485-.019-.794.195-.309.52-.454.726-.324.205.13.214.486.019.794zm2.333-.198c-.195.308-.52.453-.726.323-.205-.13-.214-.485-.019-.794.195-.309.52-.453.726-.323.205.13.214.485.019.794zm2.298-.133c-.195.309-.52.454-.726.324-.205-.13-.214-.486-.019-.794.195-.31.52-.454.726-.324.205.13.214.485.019.794z" fill="#BC9BF1"/><path d="M90.62 18.5h-2.237a.728.728 0 00-.728.728v4.9h-.704a.728.728 0 00-.584 1.163l2.55 3.425a.728.728 0 001.168 0l2.55-3.425a.728.728 0 00-.584-1.163h-.704v-4.9a.728.728 0 00-.728-.728z" fill="#8941FF"/><path d="M79.287 24h2.928a.728.728 0 00.728-.728v-5.923h1.104c.6 0 .942-.684.583-1.164l-3.296-4.406a.728.728 0 00-1.166 0l-3.296 4.406a.728.728 0 00.583 1.164h1.104v5.923c0 .402.326.728.728.728z" fill="#BE96FF"/><path d="M9.358 10.899l57.584 7.586a2.912 2.912 0 012.512 2.552l4.723 40.82c.1.86-.57 1.618-1.437 1.623l-56.693.344a2.912 2.912 0 01-2.912-2.59l-5.414-48.73c-.105-.94.7-1.729 1.637-1.605z" fill="#070C1A"/><path d="M10.996 9.743l57.584 7.586a2.912 2.912 0 012.512 2.552l4.723 40.82c.1.86-.57 1.617-1.438 1.623l-56.692.343a2.912 2.912 0 01-2.912-2.59l-5.414-48.73c-.105-.94.7-1.728 1.637-1.604z" fill="url(#paint3_linear_1314_24116)"/><path d="M30.067 22.002l-10.383-.649a.728.728 0 01-.668-.584l-.432-2.157a.728.728 0 01.802-.866l10.624 1.288c.332.04.594.3.635.632l.19 1.52a.728.728 0 01-.768.816z" fill="#F2C94C"/><path d="M65.83 30.889l2.945 23.7H23.107v-1.427l9.148-10.066a5.096 5.096 0 015.455-1.383l4.506 1.578a5.096 5.096 0 005.92-1.977l.978-1.463a4.268 4.268 0 015.254-1.54 4.268 4.268 0 004.676-.847l6.785-6.575z" fill="url(#paint4_linear_1314_24116)"/><path d="M22.777 54.59l7.93-14.646a3.64 3.64 0 014.126-1.788l5.911 1.554a3.64 3.64 0 003.146-.635l4.252-3.273a3.64 3.64 0 013.775-.407l2.81 1.327a3.64 3.64 0 003.013.043l8.145-3.564" stroke="#F2C94C" stroke-width=".728"/><path d="M19.124 24.642l3.693 29.916 7.96-21.968a3.64 3.64 0 014.753-2.149L40 32.197a3.64 3.64 0 004.078-.999l3.542-4.073a3.64 3.64 0 014.846-.585l1.57 1.108a3.64 3.64 0 004.091.073l7.532-4.925" stroke="#6518E1" stroke-width=".728"/><rect x="46.66" y="55" width="23.296" height="23.296" rx="11.648" fill="#9FE176"/><g clip-path="url(#clip0_1314_24116)" fill="#fff"><path d="M58.309 59.975a6.673 6.673 0 100 13.347 6.673 6.673 0 000-13.347zm0 12.133a5.46 5.46 0 110-10.92 5.46 5.46 0 010 10.92z"/><path d="M60.777 65.006a.607.607 0 00-.858 0l-2.145 2.145-.858-.858a.607.607 0 10-.858.858l1.286 1.287a.607.607 0 00.859 0l2.573-2.574a.606.606 0 000-.858z"/></g><rect x="64.661" y="55" width="23.296" height="23.296" rx="11.648" fill="#FF9393"/><g clip-path="url(#clip1_1314_24116)" fill="#fff"><path d="M76.308 59.975a6.673 6.673 0 100 13.346 6.673 6.673 0 000-13.346zm0 12.133a5.46 5.46 0 110-10.92 5.46 5.46 0 010 10.92z"/><path d="M77.168 66.648l1.287-1.287a.607.607 0 10-.858-.858L76.31 65.79l-1.287-1.287a.607.607 0 00-.858.858l1.287 1.287-1.287 1.287a.607.607 0 10.858.858l1.287-1.287 1.287 1.287a.607.607 0 00.858-.858l-1.287-1.287z"/></g><defs><linearGradient id="paint0_linear_1314_24116" x1="96.5" y1="64.25" x2="117" y2="51.75" gradientUnits="userSpaceOnUse"><stop stop-color="#4201AA"/><stop offset="1" stop-color="#4201AA" stop-opacity="0"/></linearGradient><linearGradient id="paint1_linear_1314_24116" x1="30.568" y1="59.25" x2="10.068" y2="46.75" gradientUnits="userSpaceOnUse"><stop stop-color="#9297B0"/><stop offset="1" stop-color="#9297B0" stop-opacity="0"/></linearGradient><linearGradient id="paint2_linear_1314_24116" x1="86.96" y1="24.5" x2="86.96" y2="64.178" gradientUnits="userSpaceOnUse"><stop stop-color="#6518E1"/><stop offset="1" stop-color="#6518E1" stop-opacity="0"/></linearGradient><linearGradient id="paint3_linear_1314_24116" x1="42.577" y1="9.5" x2="42.577" y2="62.683" gradientUnits="userSpaceOnUse"><stop stop-color="#1E2A4B"/><stop offset="1" stop-color="#1E2A4B" stop-opacity="0"/></linearGradient><linearGradient id="paint4_linear_1314_24116" x1="45.941" y1="30.889" x2="45.941" y2="54.59" gradientUnits="userSpaceOnUse"><stop offset=".073" stop-color="#6518E1"/><stop offset="1" stop-color="#1E2A4B"/></linearGradient><clipPath id="clip0_1314_24116"><path fill="#fff" transform="translate(51.028 59.368)" d="M0 0h14.56v14.56H0z"/></clipPath><clipPath id="clip1_1314_24116"><path fill="#fff" transform="translate(69.03 59.368)" d="M0 0h14.56v14.56H0z"/></clipPath><filter id="filter0_f_1314_24116" x="57.515" y="35.863" width="68.613" height="39.755" filterUnits="userSpaceOnUse" color-interpolation-filters="sRGB"><feFlood flood-opacity="0" result="BackgroundImageFix"/><feBlend in="SourceGraphic" in2="BackgroundImageFix" result="shape"/><feGaussianBlur stdDeviation="5.096" result="effect1_foregroundBlur_1314_24116"/></filter><filter id="filter1_f_1314_24116" x=".924" y="30.838" width="83.979" height="39.82" filterUnits="userSpaceOnUse" color-interpolation-filters="sRGB"><feFlood flood-opacity="0" result="BackgroundImageFix"/><feBlend in="SourceGraphic" in2="BackgroundImageFix" result="shape"/><feGaussianBlur stdDeviation="5.096" result="effect1_foregroundBlur_1314_24116"/></filter></defs></svg>