<svg width="164" height="110" viewBox="0 0 164 110" fill="none" xmlns="http://www.w3.org/2000/svg"><g filter="url(#filter0_f_1314_24285)"><path d="M81.788 70.66l65.716-4.366c1.72-.114 2.769 1.856 1.715 3.22l-18.13 23.437a3 3 0 01-2.517 1.161l-62.977-3.028c-1.717-.083-2.536-2.15-1.342-3.387l15.576-16.128a3 3 0 011.959-.91z" fill="url(#paint0_linear_1314_24285)" fill-opacity=".5"/></g><path d="M8.736 12.708l67.729 8.923a4 4 0 013.451 3.506l5.534 47.832a2 2 0 01-1.974 2.23l-66.641.404a4 4 0 01-4-3.558L6.487 14.912a2 2 0 012.249-2.204z" fill="#AA0185"/><path d="M10.684 11.333l67.73 8.923a4 4 0 013.45 3.506L87.4 71.594a2 2 0 01-1.975 2.23l-66.64.404a4 4 0 01-4-3.558L8.434 13.537a2 2 0 012.25-2.204z" fill="url(#paint1_linear_1314_24285)"/><path d="M32.862 25.859l-12.083-.755a1 1 0 01-.919-.802l-.456-2.284a1 1 0 011.1-1.188l12.348 1.496a1 1 0 01.872.869l.193 1.542a1 1 0 01-1.055 1.122z" fill="#A94CF2"/><path d="M24.355 64.625l9.18-16.955a5 5 0 015.668-2.456l6.202 1.631a5 5 0 004.32-.873l4.472-3.442a5 5 0 015.185-.558l2.694 1.272a5 5 0 004.14.06l9.407-4.117" stroke="#F2C94C"/><path d="M20.013 29.009l4.392 35.578 9.232-25.48a5 5 0 016.529-2.95l4.233 1.664a5 5 0 005.602-1.373l3.503-4.03a5 5 0 016.657-.804l1 .706a5 5 0 005.62.1l8.575-5.608" stroke="#fff"/><path d="M62.866 86.007l4.26-56.944a4 4 0 013.558-3.678l70.882-7.67a4 4 0 014.413 4.35l-6.402 68.296a4 4 0 01-4.197 3.62L66.641 90.3a4 4 0 01-3.775-4.292z" fill="#01AA96"/><path d="M60.802 84.272l4.262-57.234a4 4 0 013.557-3.679l70.883-7.705a4 4 0 014.415 4.349l-6.406 68.637a4 4 0 01-4.198 3.622l-68.739-3.699a4 4 0 01-3.774-4.291z" fill="url(#paint2_linear_1314_24285)"/><path d="M129.593 79.063l2.75-26.813-6.84 8.327a3 3 0 01-4.437.22l-.965-.962a3 3 0 00-4.584.415l-6.386 9.21a1.804 1.804 0 01-2.999-.051 1.804 1.804 0 00-2.868-.22l-1.305 1.475c-1.235 1.397-3.496 1.068-4.283-.622-.813-1.745-3.18-2.023-4.374-.514l-1.379 1.742a3 3 0 01-4.214.49l-2.86-2.263a3 3 0 00-3.457-.188l-13.674 8.588 61.875 1.165z" fill="#fff" fill-opacity=".3"/><path d="M71.843 56.375l1.376 2.627a4.49 4.49 0 006.607 1.557v0a4.49 4.49 0 014.266-.542l3.277 1.283a6 6 0 004.649-.116l1.31-.59a6 6 0 016.108.705l.43.328a6 6 0 005.626.897l.508-.177a6 6 0 015.946 1.158l3.932 3.46a5.999 5.999 0 004.708 1.45l2.071-.259a6 6 0 015.583 2.405l1.697 2.314" stroke="#fff" stroke-linecap="round"/><path d="M127.714 27.665c1.918.578 3.484 1.792 4.476 3.471.992 1.68 1.359 3.738 1.051 5.885l-10.128.513 4.601-9.869z" fill="#27AE60"/><path d="M133.301 36.511c-.138 1.468-.592 2.95-1.331 4.347a13.418 13.418 0 01-2.946 3.74 13.013 13.013 0 01-4.025 2.452c-1.448.547-2.939.791-4.368.716l2.482-10.232 10.188-1.023z" fill="#219653"/><path d="M120.868 47.776c-1.4-.039-2.718-.379-3.868-.998a7.612 7.612 0 01-2.811-2.597c-.702-1.093-1.133-2.37-1.266-3.748-.133-1.377.036-2.825.496-4.248l9.694 1.35-2.245 10.24z" fill="#2F80ED"/><path d="M113.333 36.463a12.772 12.772 0 012.326-4.376 13.48 13.48 0 013.847-3.263c1.461-.823 3.029-1.331 4.583-1.486 1.555-.154 3.055.05 4.385.597l-5.361 9.6-9.78-1.072z" fill="#6FCF97"/><path d="M71.499 48.125h3.438l.687-9.625-3.438.344-.687 9.281z" fill="#4201AA"/><path d="M71.499 48.125h3.438l.343-4.813-3.437.172-.344 4.641z" fill="#F2C94C"/><path d="M78.03 48.125h3.438l1.375-18.219-3.438.344-1.375 17.875z" fill="#4201AA"/><path d="M78.03 48.125h3.438l.687-9.11-3.437.172-.688 8.938z" fill="#F2C94C"/><path d="M84.905 48.125h3.438l.687-9.625-3.437.344-.688 9.281z" fill="#4201AA"/><path d="M84.905 48.125h3.438l.343-4.813-3.437.172-.344 4.641z" fill="#F2C94C"/><path d="M91.436 48.125h3.438l1.375-18.219-3.438.344-1.375 17.875z" fill="#4201AA"/><path d="M91.436 48.125h3.438l.688-9.11-3.438.172-.688 8.938z" fill="#F2C94C"/><path d="M97.968 48.125h3.437l.688-9.625-3.438.344-.687 9.281z" fill="#4201AA"/><path d="M97.968 48.125h3.437l.344-4.813-3.438.172-.343 4.641z" fill="#F2C94C"/><path d="M21.719 98.402l3.039-30.115a4 4 0 013.658-3.586L68.3 61.487a4 4 0 014.304 4.364l-3.48 36.76a4 4 0 01-4.33 3.608l-39.442-3.43a4 4 0 01-3.633-4.387z" fill="#4201AA"/><path d="M21.223 98.668l2.253-33.22a4 4 0 013.819-3.727l39.887-1.712a4 4 0 014.154 4.368l-3.71 39.749a4 4 0 01-4.48 3.597l-38.43-4.816a4 4 0 01-3.493-4.24z" fill="url(#paint3_linear_1314_24285)"/><path d="M27.499 97.931l2.063-18.868" stroke="#E9ECFF" stroke-width="2" stroke-linecap="round"/><path d="M27.499 97.931l1.031-9.434.516-4.717.258-2.359" stroke="#6FCF97" stroke-width="2" stroke-linecap="round"/><path d="M33.687 98.619l.687-6.436.688-6.436 1.375-12.872" stroke="#E9ECFF" stroke-width="2" stroke-linecap="round"/><path d="M33.687 98.618l.687-6.435" stroke="#EB5757" stroke-width="2" stroke-linecap="round"/><path d="M41.936 80.438L39.907 99" stroke="#E9ECFF" stroke-width="2" stroke-linecap="round"/><path d="M39.907 99l1.015-9.281.507-4.64" stroke="#F2994A" stroke-width="2" stroke-linecap="round"/><path d="M49.5 68.063l-3.367 31.28" stroke="#E9ECFF" stroke-width="2" stroke-linecap="round"/><path d="M46.133 99.344l1.683-15.64m4.433 16.29l1.375-12.338" stroke="#F2C94C" stroke-width="2" stroke-linecap="round"/><path d="M59.124 100.681l1.031-9.434 1.032-9.434" stroke="#E9ECFF" stroke-width="2" stroke-linecap="round"/><path d="M59.124 100.681l1.031-9.434" stroke="#27AE60" stroke-width="2" stroke-linecap="round"/><defs><linearGradient id="paint0_linear_1314_24285" x1="114.969" y1="92.397" x2="146.78" y2="68.264" gradientUnits="userSpaceOnUse"><stop stop-color="#4201AA"/><stop offset="1" stop-color="#4201AA" stop-opacity="0"/></linearGradient><linearGradient id="paint1_linear_1314_24285" x1="47.904" y1="11" x2="47.904" y2="74.25" gradientUnits="userSpaceOnUse"><stop stop-color="#6518E1"/><stop offset="1" stop-color="#6518E1" stop-opacity="0"/></linearGradient><linearGradient id="paint2_linear_1314_24285" x1="102.437" y1="15.125" x2="102.437" y2="92.469" gradientUnits="userSpaceOnUse"><stop stop-color="#6518E1"/><stop offset="1" stop-color="#6518E1" stop-opacity="0"/></linearGradient><linearGradient id="paint3_linear_1314_24285" x1="45.505" y1="59.813" x2="45.505" y2="108.236" gradientUnits="userSpaceOnUse"><stop stop-color="#6518E1"/><stop offset="1" stop-color="#6518E1" stop-opacity="0"/></linearGradient><filter id="filter0_f_1314_24285" x="49.688" y="52.29" width="113.953" height="55.826" filterUnits="userSpaceOnUse" color-interpolation-filters="sRGB"><feFlood flood-opacity="0" result="BackgroundImageFix"/><feBlend in="SourceGraphic" in2="BackgroundImageFix" result="shape"/><feGaussianBlur stdDeviation="7" result="effect1_foregroundBlur_1314_24285"/></filter></defs></svg>