<svg width="187" height="187" viewBox="0 0 187 187" fill="none" xmlns="http://www.w3.org/2000/svg"><g filter="url(#filter0_f_1314_25026)"><path d="M73.99 94c0 14.5 11.755 26.255 26.256 26.255 14.5 0 26.255-11.755 26.255-26.256 0-14.5-11.755-26.255-26.255-26.255-14.5 0-26.256 11.755-26.256 26.255z" stroke="url(#paint0_linear_1314_25026)" stroke-width="6"/></g><g opacity=".74" filter="url(#filter2_f_1314_25026)"><circle r="18.201" transform="matrix(-1 0 0 1 96.78 94.505)" stroke="url(#paint1_linear_1314_25026)" stroke-width="22.11"/></g><g filter="url(#filter3_f_1314_25026)"><path d="M81.459 112.343c9.233 9.458 25.232 9.304 35.754-.967 10.522-10.271 11.062-26.263 1.829-35.72-9.233-9.46-25.233-9.305-35.755.966-10.522 10.271-11.061 26.262-1.828 35.721z" stroke="url(#paint2_linear_1314_25026)" stroke-width="5.99"/></g><g filter="url(#filter4_f_1314_25026)"><path d="M75.66 86.08c-3.972 12.327 3.474 26.179 17.27 30.624 13.797 4.446 27.929-2.454 31.901-14.782 3.972-12.328-3.474-26.18-17.271-30.625-13.796-4.446-27.928 2.454-31.9 14.782z" stroke="url(#paint3_linear_1314_25026)" stroke-width="6.851"/></g><g filter="url(#filter5_f_1314_25026)"><path d="M81.006 114.494c10.468 9.831 27.616 8.772 38.298-2.602 10.681-11.374 10.661-28.555.192-38.386-10.469-9.83-27.617-8.772-38.298 2.602-10.681 11.374-10.661 28.555-.192 38.386z" stroke="url(#paint4_linear_1314_25026)" stroke-width="2.284"/></g><g filter="url(#filter6_f_1314_25026)"><path d="M80.458 115.077c10.829 10.168 28.482 9.019 39.428-2.638 10.947-11.657 10.986-29.347.157-39.515-10.828-10.17-28.481-9.02-39.428 2.637-10.947 11.657-10.985 29.347-.157 39.516z" stroke="url(#paint5_linear_1314_25026)" stroke-width=".685"/></g><defs><filter id="filter0_f_1314_25026" x="52.72" y="46.474" width="95.051" height="95.051" filterUnits="userSpaceOnUse" color-interpolation-filters="sRGB"><feFlood flood-opacity="0" result="BackgroundImageFix"/><feBlend in="SourceGraphic" in2="BackgroundImageFix" result="shape"/><feGaussianBlur stdDeviation="9.135" result="effect1_foregroundBlur_1314_25026"/></filter><filter id="filter1_f_1314_25026" x=".028" y=".293" width="186.4" height="186.4" filterUnits="userSpaceOnUse" color-interpolation-filters="sRGB"><feFlood flood-opacity="0" result="BackgroundImageFix"/><feBlend in="SourceGraphic" in2="BackgroundImageFix" result="shape"/><feGaussianBlur stdDeviation="31.972" result="effect1_foregroundBlur_1314_25026"/></filter><filter id="filter2_f_1314_25026" x="60.674" y="58.399" width="72.213" height="72.213" filterUnits="userSpaceOnUse" color-interpolation-filters="sRGB"><feFlood flood-opacity="0" result="BackgroundImageFix"/><feBlend in="SourceGraphic" in2="BackgroundImageFix" result="shape"/><feGaussianBlur stdDeviation="3.426" result="effect1_foregroundBlur_1314_25026"/></filter><filter id="filter3_f_1314_25026" x="58.239" y="52.036" width="84.022" height="83.926" filterUnits="userSpaceOnUse" color-interpolation-filters="sRGB"><feFlood flood-opacity="0" result="BackgroundImageFix"/><feBlend in="SourceGraphic" in2="BackgroundImageFix" result="shape"/><feGaussianBlur stdDeviation="6.851" result="effect1_foregroundBlur_1314_25026"/></filter><filter id="filter4_f_1314_25026" x="64.311" y="59.671" width="71.868" height="68.659" filterUnits="userSpaceOnUse" color-interpolation-filters="sRGB"><feFlood flood-opacity="0" result="BackgroundImageFix"/><feBlend in="SourceGraphic" in2="BackgroundImageFix" result="shape"/><feGaussianBlur stdDeviation="3.426" result="effect1_foregroundBlur_1314_25026"/></filter><filter id="filter5_f_1314_25026" x="69.745" y="63.37" width="61.012" height="61.261" filterUnits="userSpaceOnUse" color-interpolation-filters="sRGB"><feFlood flood-opacity="0" result="BackgroundImageFix"/><feBlend in="SourceGraphic" in2="BackgroundImageFix" result="shape"/><feGaussianBlur stdDeviation="1.142" result="effect1_foregroundBlur_1314_25026"/></filter><filter id="filter6_f_1314_25026" x="69.745" y="63.37" width="61.012" height="61.261" filterUnits="userSpaceOnUse" color-interpolation-filters="sRGB"><feFlood flood-opacity="0" result="BackgroundImageFix"/><feBlend in="SourceGraphic" in2="BackgroundImageFix" result="shape"/><feGaussianBlur stdDeviation="1.142" result="effect1_foregroundBlur_1314_25026"/></filter><linearGradient id="paint0_linear_1314_25026" x1="68.421" y1="93.999" x2="129.501" y2="93.999" gradientUnits="userSpaceOnUse"><stop stop-color="#1FFFF2"/><stop offset="1" stop-color="#712FFF"/></linearGradient><linearGradient id="paint1_linear_1314_25026" x1="61.081" y1="29.256" x2="0" y2="29.256" gradientUnits="userSpaceOnUse"><stop offset=".521" stop-color="#1FFFF2" stop-opacity="0"/><stop offset="1" stop-color="#712FFF"/></linearGradient><linearGradient id="paint2_linear_1314_25026" x1="77.477" y1="116.23" x2="121.185" y2="73.563" gradientUnits="userSpaceOnUse"><stop stop-color="#1FFFF2"/><stop offset="1" stop-color="#712FFF"/></linearGradient><linearGradient id="paint3_linear_1314_25026" x1="69.954" y1="84.241" x2="128.091" y2="102.972" gradientUnits="userSpaceOnUse"><stop stop-color="#1FFFF2"/><stop offset="1" stop-color="#712FFF"/></linearGradient><linearGradient id="paint4_linear_1314_25026" x1="78.465" y1="117.199" x2="120.278" y2="72.674" gradientUnits="userSpaceOnUse"><stop stop-color="#1FFFF2"/><stop offset="1" stop-color="#712FFF"/></linearGradient><linearGradient id="paint5_linear_1314_25026" x1="84.559" y1="125.131" x2="114.678" y2="73.499" gradientUnits="userSpaceOnUse"><stop stop-color="#fff"/><stop offset="1" stop-color="#fff" stop-opacity="0"/></linearGradient></defs></svg>