<svg width="163" height="114" viewBox="0 0 163 114" fill="none" xmlns="http://www.w3.org/2000/svg"><path d="M19.833 25.61l59.145 7.792a4 4 0 013.45 3.506l4.816 41.613a2 2 0 01-1.975 2.23l-58.16.352a4 4 0 01-4-3.558l-5.525-49.731a2 2 0 012.249-2.204z" fill="#070C1A"/><path d="M21.552 24.396l59.146 7.791a4 4 0 013.45 3.507l4.815 41.613a2 2 0 01-1.974 2.23l-58.16.352a4 4 0 01-4-3.558L19.303 26.6a2 2 0 012.25-2.204z" fill="url(#paint0_linear_1314_24252)"/><path d="M78.539 46.523l3.094 24.89H33.676v-1.5l8.87-9.763a7 7 0 017.495-1.899l3.192 1.118a6.047 6.047 0 007.025-2.346l.728-1.088a4.482 4.482 0 015.517-1.617 4.482 4.482 0 004.91-.89l7.126-6.905z" fill="url(#paint1_linear_1314_24252)"/><path d="M33.328 71.412l7.886-14.567a5 5 0 015.669-2.455l4.753 1.25a5 5 0 004.321-.873l3.437-2.646a5 5 0 015.185-.558l1.815.857a5 5 0 004.14.06l8.063-3.529" stroke="#F2C94C"/><path d="M29.493 39.964l3.878 31.415 7.947-21.933a5 5 0 016.53-2.95l2.794 1.097a5 5 0 005.6-1.372l2.477-2.847a5 5 0 016.656-.804l.126.088a5 5 0 005.62.1l7.24-4.733" stroke="#6518E1"/><g filter="url(#filter0_f_1314_24252)"><path d="M82.203 71.216l63.892-5.264c1.639-.136 2.731 1.655 1.861 3.05l-18.101 29.032a3 3 0 01-2.725 1.407l-61.311-3.658c-1.607-.096-2.448-1.954-1.46-3.225l15.723-20.195a3 3 0 012.12-1.147z" fill="url(#paint2_linear_1314_24252)" fill-opacity=".5"/></g><path d="M74.084 20.74l64.975-6.361a2 2 0 012.152 2.404l-17.133 81.033a2.999 2.999 0 01-3.28 2.359l-62.1-7.2a3 3 0 01-2.584-3.626l14.453-65.49a4 4 0 013.517-3.119z" fill="#AA0185"/><path d="M71.123 19.752l64.975-6.36a2 2 0 012.152 2.403l-17.133 81.033a3 3 0 01-3.28 2.36l-62.1-7.2a3 3 0 01-2.584-3.627l14.453-65.49a4 4 0 013.517-3.119z" fill="url(#paint3_linear_1314_24252)"/><path d="M82.053 86.176l4.936-22.21M73.167 85.189l2.468-11.106M64.283 84.201l2.468-11.105 1.234-5.553" stroke="#E9ECFF" stroke-width="2" stroke-linecap="round"/><path d="M68.232 51.13l25.173-.513M69.22 47.182l23.198-.494m-22.212-3.455l20.237-.493" stroke="#fff" stroke-linecap="round"/><path d="M75.302 27.102l21.258-1.544a1 1 0 011.056 1.176l-1.456 8.012a2 2 0 01-1.89 1.64l-22.25.873a1 1 0 01-1.011-1.233l1.593-6.632a3 3 0 012.7-2.292zm54.259-6.859c-.292.461-.777.678-1.083.484-.307-.194-.32-.725-.029-1.186.291-.46.776-.677 1.083-.483.307.194.32.724.029 1.185zm3.426-.198c-.291.46-.776.677-1.083.483-.307-.194-.319-.725-.028-1.186.291-.46.776-.677 1.083-.483.307.194.32.725.028 1.186z" fill="#BC9BF1"/><path d="M120.193 41.723c.956-2.963 1.189-6.042.65-8.624-.538-2.582-1.807-4.479-3.555-5.315-1.749-.837-3.849-.551-5.885.8-2.035 1.35-3.857 3.668-5.104 6.493-1.248 2.825-1.829 5.95-1.63 8.757.2 2.807 1.166 5.09 2.707 6.396s3.545 1.54 5.613.656c2.069-.884 4.052-2.822 5.555-5.43l-2.555-2.748c-.826 1.431-1.914 2.495-3.049 2.98-1.136.485-2.236.357-3.081-.36-.846-.717-1.377-1.97-1.486-3.51-.11-1.541.209-3.257.894-4.807.685-1.551 1.685-2.823 2.802-3.565 1.117-.741 2.27-.898 3.23-.439.96.46 1.656 1.5 1.952 2.918.295 1.417.168 3.107-.357 4.734l3.299 1.064z" fill="#F2994A"/><path d="M120.193 41.723c-.849 2.631-2.217 5.011-3.887 6.764-1.671 1.752-3.548 2.777-5.334 2.911-1.786.135-3.38-.629-4.529-2.169-1.148-1.54-1.786-3.769-1.811-6.334-.026-2.565.562-5.318 1.67-7.825 1.108-2.506 2.672-4.622 4.446-6.013 1.774-1.39 3.656-1.975 5.346-1.662 1.691.313 3.095 1.506 3.989 3.39l-3.25 3.87c-.49-1.034-1.261-1.69-2.189-1.861-.928-.172-1.961.15-2.935.912-.973.763-1.832 1.925-2.44 3.3-.608 1.377-.931 2.888-.917 4.296.014 1.408.364 2.631.995 3.477.63.845 1.505 1.264 2.485 1.19.981-.074 2.011-.636 2.928-1.598.917-.962 1.668-2.268 2.134-3.712l3.299 1.064zM96.836 77.408c-.329 3.043.146 5.825 1.328 7.777 1.182 1.952 2.981 2.928 5.031 2.728 2.051-.2 4.197-1.56 6.002-3.802 1.805-2.243 3.133-5.2 3.713-8.268l-3.576.02c-.318 1.685-1.047 3.308-2.038 4.539-.991 1.23-2.169 1.977-3.294 2.087-1.126.11-2.113-.426-2.762-1.498-.649-1.071-.909-2.598-.729-4.269l-3.675.686z" fill="#B441EA"/><path d="M96.836 77.408c-.236 2.184-.06 4.25.51 5.974.57 1.724 1.51 3.04 2.72 3.805l2.218-5.097c-.664-.42-1.18-1.142-1.493-2.089-.313-.946-.409-2.08-.28-3.279l-3.675.686z" fill="#CBCE39"/><path d="M96.826 77.499a19.651 19.651 0 011.195-4.971c.617-1.614 1.43-3.111 2.387-4.397.957-1.285 2.036-2.33 3.169-3.068s2.295-1.152 3.41-1.216a4.847 4.847 0 013.067.845c.907.621 1.656 1.562 2.199 2.762.543 1.2.868 2.632.955 4.205.086 1.573-.068 3.252-.454 4.929l-3.505-.316c.211-.92.296-1.842.248-2.705-.047-.864-.226-1.65-.524-2.308-.298-.659-.709-1.175-1.207-1.516a2.659 2.659 0 00-1.683-.464c-.612.035-1.25.262-1.872.667-.622.405-1.214.979-1.739 1.685a10.054 10.054 0 00-1.31 2.413 10.77 10.77 0 00-.656 2.728l-3.68.727z" fill="#F2994A"/><path d="M43.726 25h-3.077a1 1 0 00-1 1v6.738h-.97a1 1 0 00-.802 1.598l3.508 4.712a1 1 0 001.605 0l3.508-4.712a1 1 0 00-.802-1.598h-.97V26a1 1 0 00-1-1z" fill="#FF414C"/><path d="M28.142 32.563h4.029a1 1 0 001-1v-8.146h1.52a1 1 0 00.8-1.599l-4.534-6.06a1 1 0 00-1.602 0l-4.534 6.06a1 1 0 00.801 1.6h1.52v8.145a1 1 0 001 1z" fill="#34E06F"/><defs><linearGradient id="paint0_linear_1314_24252" x1="54.121" y1="24.063" x2="54.121" y2="79.911" gradientUnits="userSpaceOnUse"><stop stop-color="#1E2A4B"/><stop offset="1" stop-color="#1E2A4B" stop-opacity="0"/></linearGradient><linearGradient id="paint1_linear_1314_24252" x1="57.654" y1="46.523" x2="57.654" y2="71.412" gradientUnits="userSpaceOnUse"><stop offset=".073" stop-color="#6518E1"/><stop offset="1" stop-color="#1E2A4B"/></linearGradient><linearGradient id="paint2_linear_1314_24252" x1="114.201" y1="97.392" x2="149.588" y2="75.752" gradientUnits="userSpaceOnUse"><stop stop-color="#4201AA"/><stop offset="1" stop-color="#4201AA" stop-opacity="0"/></linearGradient><linearGradient id="paint3_linear_1314_24252" x1="95.626" y1="13.125" x2="95.626" y2="99.502" gradientUnits="userSpaceOnUse"><stop stop-color="#6518E1"/><stop offset="1" stop-color="#6518E1" stop-opacity="0"/></linearGradient><filter id="filter0_f_1314_24252" x="49.935" y="51.944" width="112.328" height="61.502" filterUnits="userSpaceOnUse" color-interpolation-filters="sRGB"><feFlood flood-opacity="0" result="BackgroundImageFix"/><feBlend in="SourceGraphic" in2="BackgroundImageFix" result="shape"/><feGaussianBlur stdDeviation="7" result="effect1_foregroundBlur_1314_24252"/></filter></defs></svg>