<svg width="81" height="80" viewBox="0 0 81 80" fill="none" xmlns="http://www.w3.org/2000/svg"><path fill-rule="evenodd" clip-rule="evenodd" d="M51.575 46.913l9.737 9.75-3.962 3.85-9.613-9.613 3.838-3.987z" fill="#7346FE"/><path fill-rule="evenodd" clip-rule="evenodd" d="M49.638 49.425l2.225-2.225 9.55 9.55-2.638 1.8-9.137-9.125z" fill="#8862FF"/><path d="M31.638 5a25.937 25.937 0 10.075 51.875A25.937 25.937 0 0031.638 5zm0 6.438a19.487 19.487 0 11-13.743 5.707 19.488 19.488 0 0113.78-5.707h-.037z" fill="url(#paint0_linear_1314_25016)"/><path fill-rule="evenodd" clip-rule="evenodd" d="M59.837 56.875a5.85 5.85 0 012.963-.825 5.963 5.963 0 014.2 1.763l6.987 6.95a5.988 5.988 0 01-7.2 9.424 5.975 5.975 0 001.25-9.425l-6.95-6.95a5.617 5.617 0 00-1.25-.937zm8.2 16.362c-.374.37-.794.69-1.25.95a6.622 6.622 0 01-1.25-.95l-6.95-6.95a5.974 5.974 0 010-8.475 5.779 5.779 0 011.25-.937c.458.253.88.568 1.25.938l6.95 6.95a5.976 5.976 0 010 8.474z" fill="url(#paint1_linear_1314_25016)"/><defs><linearGradient id="paint0_linear_1314_25016" x1="59.891" y1="30.938" x2="5.738" y2="30.938" gradientUnits="userSpaceOnUse"><stop stop-color="#1FFFF2"/><stop offset="1" stop-color="#712FFF"/></linearGradient><linearGradient id="paint1_linear_1314_25016" x1="76.548" y1="65.505" x2="56.825" y2="65.505" gradientUnits="userSpaceOnUse"><stop stop-color="#1FFFF2"/><stop offset="1" stop-color="#712FFF"/></linearGradient></defs></svg>