<svg width="166" height="110" viewBox="0 0 166 110" fill="none" xmlns="http://www.w3.org/2000/svg"><g filter="url(#filter0_f_1314_24211)"><path d="M102.855 67.477l51.364-4.245c1.132-.094 1.888 1.143 1.288 2.108l-14.719 23.673a2.072 2.072 0 01-1.885.976l-49.342-2.952c-1.11-.067-1.692-1.35-1.01-2.228l12.837-16.537a2.073 2.073 0 011.467-.795z" fill="url(#paint0_linear_1314_24211)" fill-opacity=".5"/></g><g filter="url(#filter1_f_1314_24211)"><path d="M84.552 61.729l-72.58-5.397c-1.127-.084-1.873 1.149-1.276 2.11l14.756 23.734c.39.626 1.082.999 1.82.978l70.477-1.953c1.131-.032 1.748-1.336 1.053-2.23L86.037 62.525c-.36-.463-.9-.753-1.485-.796z" fill="url(#paint1_linear_1314_24211)" fill-opacity=".5"/></g><path d="M98.514 39.938l51.593-4.264c.975-.08 1.724.85 1.435 1.785l-15.739 51.047a2.075 2.075 0 01-2.106 1.46l-49.79-2.98a1.383 1.383 0 01-1.234-1.802L96.71 41.372a2.074 2.074 0 011.804-1.434z" fill="#4201AA"/><path d="M96.697 38.12l51.593-4.264a1.383 1.383 0 011.435 1.785l-15.74 51.047a2.073 2.073 0 01-2.105 1.459l-49.79-2.979a1.383 1.383 0 01-1.234-1.802l14.037-43.812a2.074 2.074 0 011.804-1.434z" fill="url(#paint2_linear_1314_24211)"/><path d="M88.496 78.24l4.092-12.73m2.273 12.73l6.82-20.458m-.454 20.458l2.045-6.364 1.023-3.183m3.297 9.547l2.046-6.364 5.683-17.277m-1.364 23.641l5.001-15.458m1.364 15.458l1.023-3.182m5.341 3.182l4.091-12.73" stroke="#BC9BF1" stroke-width="2.074" stroke-linecap="round"/><path d="M98.478 43.666l8.153-.388a.691.691 0 01.697.88l-.508 1.779a.69.69 0 01-.633.5l-8.404.383a.691.691 0 01-.667-.963l.76-1.772a.691.691 0 01.602-.419zm36.48.032c-.268.424-.715.624-.998.445-.282-.179-.294-.668-.026-1.092.268-.425.715-.624.998-.445.282.178.294.667.026 1.092zm3.209-.273c-.268.424-.715.623-.998.445-.282-.179-.294-.668-.026-1.092.268-.425.715-.624.998-.445.282.178.294.667.026 1.092zm3.156-.183c-.268.425-.715.624-.997.445-.283-.178-.295-.667-.027-1.092.269-.424.715-.623.998-.445.283.179.294.668.026 1.092z" fill="#BC9BF1"/><path d="M120.661 25.437h-3.695a.692.692 0 00-.691.692v7.047h-1.585a.691.691 0 00-.554 1.104l4.123 5.538a.691.691 0 001.109 0l4.123-5.538a.691.691 0 00-.554-1.104h-1.585v-7.047a.692.692 0 00-.691-.692z" fill="#8941FF"/><path d="M104.459 33h4.646c.382 0 .692-.31.692-.691v-8.455h2.136c.569 0 .894-.65.553-1.105l-5.15-6.884a.691.691 0 00-1.107 0l-5.151 6.884a.691.691 0 00.554 1.105h2.136v8.455c0 .381.309.69.691.69z" fill="#BE96FF"/><path d="M7.832 14.883l80.92 10.66a2.765 2.765 0 012.385 2.423L97.82 85.74a1.383 1.383 0 01-1.365 1.541l-79.758.484a2.765 2.765 0 01-2.766-2.46L6.277 16.406a1.383 1.383 0 011.555-1.523z" fill="#01AA96"/><path d="M10.083 13.293l80.919 10.66a2.765 2.765 0 012.386 2.424l6.684 57.772a1.382 1.382 0 01-1.365 1.542l-79.759.483a2.765 2.765 0 01-2.765-2.46L8.528 14.816c-.1-.892.665-1.64 1.555-1.523z" fill="url(#paint3_linear_1314_24211)"/><path d="M86.263 42.472l4.051 32.59H27.521v-1.964l13.542-14.904a4.84 4.84 0 015.181-1.313l9.136 3.199A4.84 4.84 0 0061 58.203l2.757-4.123a4.839 4.839 0 015.957-1.745l1.421.62a4.839 4.839 0 005.303-.961l9.824-9.522z" fill="url(#paint4_linear_1314_24211)"/><path d="M27 75l11.431-14.425a3.457 3.457 0 013.32-1.256l11.037 1.983a3.457 3.457 0 002.22-.343l7.834-4.12a3.457 3.457 0 012.67-.23l6.242 2.014a3.457 3.457 0 002.051.023L86 55" stroke="#fff" stroke-width=".691"/><path d="M22.045 33.883l5.078 41.134L38.61 43.315a3.456 3.456 0 014.513-2.04l8.644 3.396a3.457 3.457 0 003.872-.949l6.506-7.482a3.456 3.456 0 014.601-.555l4.163 2.938a3.456 3.456 0 003.884.069l11.238-7.348" stroke="#fff" stroke-width=".691"/><rect x="59.909" y="75.625" width="22.122" height="22.122" rx="11.061" fill="#9FE176"/><g clip-path="url(#clip0_1314_24211)" fill="#fff"><path d="M70.97 80.35a6.337 6.337 0 100 12.673 6.337 6.337 0 000-12.674zm0 11.52a5.185 5.185 0 110-10.369 5.185 5.185 0 010 10.37z"/><path d="M73.314 85.126a.576.576 0 00-.814 0l-2.037 2.037-.815-.815a.576.576 0 10-.815.815l1.222 1.222c.225.225.59.225.815 0l2.444-2.444a.576.576 0 000-.815z"/></g><rect x="84.658" y="75.625" width="22.122" height="22.122" rx="11.061" fill="#FF9393"/><g clip-path="url(#clip1_1314_24211)" fill="#fff"><path d="M95.719 80.349a6.337 6.337 0 100 12.674 6.337 6.337 0 000-12.674zm0 11.521a5.185 5.185 0 110-10.37 5.185 5.185 0 010 10.37z"/><path d="M96.534 86.686l1.222-1.223a.576.576 0 10-.815-.814l-1.222 1.222-1.222-1.222a.576.576 0 00-.815.814l1.222 1.223-1.222 1.222a.576.576 0 10.815.814L95.72 87.5l1.222 1.222a.576.576 0 00.815-.814l-1.222-1.222z"/></g><defs><linearGradient id="paint0_linear_1314_24211" x1="128.437" y1="88.344" x2="156.625" y2="71.156" gradientUnits="userSpaceOnUse"><stop stop-color="#4201AA"/><stop offset="1" stop-color="#4201AA" stop-opacity="0"/></linearGradient><linearGradient id="paint1_linear_1314_24211" x1="37.78" y1="81.469" x2="9.593" y2="64.281" gradientUnits="userSpaceOnUse"><stop stop-color="#9297B0"/><stop offset="1" stop-color="#9297B0" stop-opacity="0"/></linearGradient><linearGradient id="paint2_linear_1314_24211" x1="115.32" y1="33.687" x2="115.32" y2="88.244" gradientUnits="userSpaceOnUse"><stop stop-color="#6518E1"/><stop offset="1" stop-color="#6518E1" stop-opacity="0"/></linearGradient><linearGradient id="paint3_linear_1314_24211" x1="54.291" y1="13.063" x2="54.291" y2="86.189" gradientUnits="userSpaceOnUse"><stop stop-color="#01AA96"/><stop offset="1" stop-color="#01AA96" stop-opacity="0"/></linearGradient><linearGradient id="paint4_linear_1314_24211" x1="58.917" y1="42.472" x2="58.917" y2="75.061" gradientUnits="userSpaceOnUse"><stop offset=".073" stop-color="#02AA96"/><stop offset="1" stop-color="#06C6AF"/></linearGradient><clipPath id="clip0_1314_24211"><path fill="#fff" transform="translate(64.057 79.773)" d="M0 0h13.826v13.826H0z"/></clipPath><clipPath id="clip1_1314_24211"><path fill="#fff" transform="translate(88.806 79.773)" d="M0 0h13.826v13.826H0z"/></clipPath><filter id="filter0_f_1314_24211" x="78.58" y="53.549" width="86.816" height="46.122" filterUnits="userSpaceOnUse" color-interpolation-filters="sRGB"><feFlood flood-opacity="0" result="BackgroundImageFix"/><feBlend in="SourceGraphic" in2="BackgroundImageFix" result="shape"/><feGaussianBlur stdDeviation="4.839" result="effect1_foregroundBlur_1314_24211"/></filter><filter id="filter1_f_1314_24211" x=".806" y="46.65" width="107.967" height="46.183" filterUnits="userSpaceOnUse" color-interpolation-filters="sRGB"><feFlood flood-opacity="0" result="BackgroundImageFix"/><feBlend in="SourceGraphic" in2="BackgroundImageFix" result="shape"/><feGaussianBlur stdDeviation="4.839" result="effect1_foregroundBlur_1314_24211"/></filter></defs></svg>