<svg width="204" height="50" viewBox="0 0 204 50" fill="none" xmlns="http://www.w3.org/2000/svg"><g clip-path="url(#clip0_1314_25074)"><path d="M41.941 2.364H8.797a5.998 5.998 0 00-5.998 5.998v33.144a5.998 5.998 0 005.998 5.998H41.94a5.998 5.998 0 005.998-5.998V8.362a5.998 5.998 0 00-5.998-5.998z" stroke="#BABFD6" stroke-width="1.548"/><path d="M41.964.23H8.772C4.295.23.634 3.893.634 8.368V41.56c0 4.477 3.663 8.138 8.138 8.138h33.192c4.477 0 8.138-3.662 8.138-8.138V8.368c0-4.475-3.662-8.138-8.138-8.138zm6.01 41.276a6.016 6.016 0 01-5.997 5.998H8.83a6.016 6.016 0 01-5.998-5.998V8.36A6.016 6.016 0 018.83 2.362h33.147a6.016 6.016 0 015.997 5.998v33.146z" fill="#BABFD6"/><path d="M9.26 21.137l8.389 13.846c.263.578.694.62 1.004.026 0 0 5.027-8.1 5.156-8.33.073-.128.163-.364.5-.353.252.007.46.274.531.362.157.195 3.524 4.196 3.8 4.515.168.195.55.742 1.104.736.673-.006.962-.56 1.056-.707.19-.3 6.43-10.306 6.607-10.604.153-.257.296-.462.557-.42.295.047.35.3.39.44.073.27.594 2.082.662 2.351.037.145.094.446.426.457.283.009.375-.302.404-.436.063-.294 1.571-7.675 1.62-7.905.023-.116.105-.38-.08-.537-.147-.126-.397-.053-.557.006a1016.1 1016.1 0 01-6.834 2.339c-.516.163-.804.187-.785.52.019.332.441.32.72.352a70.96 70.96 0 012.171.29c.195.032.41.056.446.241.043.21-.157.43-.257.563-.1.132-5.49 7.57-5.934 8.278-.616.978-.984.812-1.461.3-.426-.457-4.217-4.34-4.568-4.82-.407-.556-1.392-.795-1.913.2l-3.028 5.798c-.117.229-.284.628-.515.635-.34.011-.497-.24-.853-.592L9.936 20.78s-.273-.252-.536-.073a.336.336 0 00-.14.43z" fill="#BABFD6"/></g><mask id="mask0_1314_25074" style="mask-type:alpha" maskUnits="userSpaceOnUse" x="105" y="6" width="99" height="38"><path fill-rule="evenodd" clip-rule="evenodd" d="M105.87 43.17h97.532V6.422H105.87V43.17z" fill="#fff"/></mask><g mask="url(#mask0_1314_25074)" fill-rule="evenodd" clip-rule="evenodd" fill="#BABFD6"><path d="M157.149 19.015c-.818-.688-2.215-1.032-4.19-1.032h-4.456v13.77h3.332v-4.316h1.492c1.812 0 3.14-.399 3.985-1.197.952-.894 1.431-2.084 1.431-3.57 0-1.542-.531-2.76-1.594-3.655zm-3.904 5.306h-1.41V21.1h1.266c1.541 0 2.311.54 2.311 1.62 0 1.067-.723 1.602-2.167 1.602zm11.199-6.338h-3.474v13.769h7.501v-3.117h-4.027V17.983zm10.833 0l-5.457 13.769h3.741l.715-2.002h4.742l.654 2.002h3.782l-5.419-13.77h-2.758zm-.041 8.98l1.432-4.707 1.408 4.706h-2.84zm9.955 4.788h3.475V17.982h-3.475v13.77zm16.965-11.188a5.701 5.701 0 00-1.657-1.59c-1.048-.66-2.48-.99-4.292-.99h-4.578v13.768h5.355c1.936 0 3.488-.632 4.66-1.898 1.172-1.266 1.757-2.946 1.757-5.038 0-1.664-.415-3.082-1.246-4.252h.001zm-5.56 8.071h-1.492V21.1h1.513c1.063 0 1.879.333 2.452.997.573.663.859 1.604.859 2.823 0 2.477-1.111 3.715-3.332 3.715zm-76.3-22.212l-11.26 2.95-3.103 11.323 3.881 3.985-3.944 3.92 2.921 11.373 11.211 3.132 3.945-3.92 3.881 3.985 11.26-2.95 3.103-11.324-3.881-3.983 3.944-3.92-2.92-11.374-11.213-3.132-3.943 3.919-3.882-3.984zm-6.91 5.128l5.932-1.554 2.594 2.662-3.783 3.76-4.743-4.868zm13.022 1.144l2.635-2.619 5.906 1.65-4.82 4.79-3.721-3.821zm-16.921 7.072l1.634-5.964 4.741 4.867-3.782 3.759-2.593-2.662zm22.871-.962l4.82-4.791 1.537 5.991-2.635 2.62-3.722-3.82zm-12-.099l3.783-3.758 3.721 3.82-3.782 3.76-3.722-3.822zm-6.048 6.01l3.782-3.758 3.723 3.82-3.783 3.76-3.722-3.821zm12 .1l3.782-3.76 3.722 3.821-3.783 3.759-3.721-3.82zm-16.902 4.773l2.636-2.62 3.721 3.821-4.818 4.789-1.539-5.99zm10.853 1.237l3.783-3.759 3.721 3.82-3.782 3.76-3.722-3.821zm11.999.099l3.783-3.759 2.594 2.662-1.633 5.964-4.744-4.867zm-19.085 6.943l4.819-4.79 3.724 3.82-2.637 2.62-5.906-1.65zm13.038-.933l3.782-3.76 4.742 4.869-5.931 1.553-2.593-2.662z"/></g><defs><clipPath id="clip0_1314_25074"><path fill="#fff" transform="translate(.598 .23)" d="M0 0h49.54v49.54H0z"/></clipPath></defs></svg>